<?xml version='1.0' encoding='utf-8'?>
<svg xmlns="http://www.w3.org/2000/svg" xmlns:dc="http://purl.org/dc/elements/1.1/" xmlns:ns1="http://www.inkscape.org/namespaces/inkscape" xmlns:ns3="http://creativecommons.org/ns#" xmlns:rdf="http://www.w3.org/1999/02/22-rdf-syntax-ns#" height="744.09448" id="svg3641" version="1.0" width="1052.3622">
  <defs id="defs15341">
    <marker id="Arrow1Lend" orient="auto" refX="0" refY="0" style="overflow:visible">
      <path d="M 0,0 5,-5 -12.5,0 5,5 0,0 z" id="path3104" style="fill-rule:evenodd;stroke:#000000;stroke-width:1pt;marker-start:none" transform="matrix(-0.8,0,0,-0.8,-10,0)" ns1:connector-curvature="0" />
    </marker>
    <marker id="Arrow1Lstart" orient="auto" refX="0" refY="0" style="overflow:visible">
      <path d="M 0,0 5,-5 -12.5,0 5,5 0,0 z" id="path3282" style="fill-rule:evenodd;stroke:#000000;stroke-width:1pt;marker-start:none" transform="matrix(0.8,0,0,0.8,10,0)" ns1:connector-curvature="0" />
    </marker>
    <marker id="Arrow1Lstart-7" orient="auto" refX="0" refY="0" style="overflow:visible">
      <path d="M 0,0 5,-5 -12.5,0 5,5 0,0 z" id="path3282-4" style="fill-rule:evenodd;stroke:#000000;stroke-width:1pt;marker-start:none" transform="matrix(0.8,0,0,0.8,10,0)" ns1:connector-curvature="0" />
    </marker>
    <marker id="Arrow1Lend-6" orient="auto" refX="0" refY="0" style="overflow:visible">
      <path d="M 0,0 5,-5 -12.5,0 5,5 0,0 z" id="path3104-0" style="fill-rule:evenodd;stroke:#000000;stroke-width:1pt;marker-start:none" transform="matrix(-0.8,0,0,-0.8,-10,0)" ns1:connector-curvature="0" />
    </marker>
  </defs>
  <metadata id="metadata2238">
    <rdf:RDF>
      <ns3:Work rdf:about="">
        <dc:format>image/svg+xml</dc:format>
        <dc:type rdf:resource="http://purl.org/dc/dcmitype/StillImage" />
        <dc:creator>
          <ns3:Agent>
            <dc:title>Matthias Kerk</dc:title>
          </ns3:Agent>
        </dc:creator>
        <dc:rights>
          <ns3:Agent>
            <dc:title />
          </ns3:Agent>
        </dc:rights>
        <dc:publisher>
          <ns3:Agent>
            <dc:title>Matthias Kerk</dc:title>
          </ns3:Agent>
        </dc:publisher>
        <dc:title>Schlauchbootslalom Parcours</dc:title>
        <ns3:license rdf:resource="http://creativecommons.org/licenses/by-nc-sa/3.0/" />
      </ns3:Work>
      <ns3:License rdf:about="http://creativecommons.org/licenses/by-nc-sa/3.0/">
        <ns3:permits rdf:resource="http://creativecommons.org/ns#Reproduction" />
        <ns3:permits rdf:resource="http://creativecommons.org/ns#Distribution" />
        <ns3:requires rdf:resource="http://creativecommons.org/ns#Notice" />
        <ns3:requires rdf:resource="http://creativecommons.org/ns#Attribution" />
        <ns3:prohibits rdf:resource="http://creativecommons.org/ns#CommercialUse" />
        <ns3:permits rdf:resource="http://creativecommons.org/ns#DerivativeWorks" />
        <ns3:requires rdf:resource="http://creativecommons.org/ns#ShareAlike" />
      </ns3:License>
    </rdf:RDF>
  </metadata>
  <g id="Parcours" transform="translate(-32.46755,-225.851)">
    <defs id="defs2076" />
    <g id="Zeitnahme" style="display:inline" transform="translate(17.76371,79.7306)">
      <g id="g13156" transform="translate(-166.5354,-88.58268)">
        <path d="m 385.39441,524.40945 c 0,-3.45427 -2.79894,-6.26056 -6.26056,-6.26056 -3.45291,0 -6.26057,2.80004 -6.26057,6.26056 0,3.45427 2.80069,6.26056 6.26057,6.26056 3.45464,0 6.26056,-2.80003 6.26056,-6.26056 z" id="path13158" style="fill:#000000;fill-opacity:1;stroke:#000000;stroke-width:1.65209699" ns1:connector-curvature="0" />
        <path d="m 382.04139,504.44816 c 0.34883,-0.15079 0.69863,-0.30463 1.04746,-0.4109 0.34884,-0.10728 0.69767,-0.17002 1.04747,-0.17002 0.34883,0 0.69767,0.0587 1.04746,0.17002 0.34884,0.10627 0.69767,0.25606 1.04651,0.4109 0.34595,0.14979 0.69863,0.30059 1.04747,0.40686 0.34595,0.10728 0.69863,0.17002 1.04746,0.17002 0.34499,0 0.69863,-0.0597 1.04747,-0.17002 0.34499,-0.10627 0.69767,-0.25707 1.04746,-0.40686" id="path13160" style="fill:none;stroke:#000000;stroke-width:0.98619282;stroke-linecap:round;stroke-linejoin:round" ns1:connector-curvature="0" />
        <path d="m 382.16486,503.90514 -2.531,16.219 0,0.242 0,0" id="path13162" style="fill:none;stroke:#000000;stroke-width:1;stroke-linecap:round;stroke-linejoin:round" ns1:connector-curvature="0" />
        <path d="m 380.85586,512.26814 c 0.36,-0.148 0.727,-0.297 1.09,-0.402 0.359,-0.106 0.727,-0.168 1.09,-0.168 0.359,0 0.726,0.058 1.09,0.168 0.363,0.105 0.726,0.254 1.09,0.402 0.363,0.149 0.726,0.297 1.089,0.406 0.364,0.102 0.727,0.164 1.09,0.164 0.364,0 0.727,-0.058 1.09,-0.164 0.363,-0.105 0.727,-0.254 1.09,-0.406" id="path13164" style="fill:none;stroke:#000000;stroke-width:1;stroke-linecap:round;stroke-linejoin:round" ns1:connector-curvature="0" />
        <path d="m 390.56626,504.56998 -0.97449,7.47049 0,0.11233 0,0" id="path13166" style="fill:none;stroke:#000000;stroke-width:0.96009302;stroke-linecap:round" ns1:connector-curvature="0" />
      </g>
      <g id="g13172" transform="translate(-166.5354,63.43307)">
        <path d="m 385.39441,524.40945 c 0,-3.45427 -2.79894,-6.26056 -6.26056,-6.26056 -3.45291,0 -6.26057,2.80004 -6.26057,6.26056 0,3.45427 2.80069,6.26056 6.26057,6.26056 3.45464,0 6.26056,-2.80003 6.26056,-6.26056 z" id="path13174" style="fill:#000000;fill-opacity:1;stroke:#000000;stroke-width:1.65209699" ns1:connector-curvature="0" />
        <path d="m 382.04139,504.44816 c 0.34883,-0.15079 0.69863,-0.30463 1.04746,-0.4109 0.34884,-0.10728 0.69767,-0.17002 1.04747,-0.17002 0.34883,0 0.69767,0.0587 1.04746,0.17002 0.34884,0.10627 0.69767,0.25606 1.04651,0.4109 0.34595,0.14979 0.69863,0.30059 1.04747,0.40686 0.34595,0.10728 0.69863,0.17002 1.04746,0.17002 0.34499,0 0.69863,-0.0597 1.04747,-0.17002 0.34499,-0.10627 0.69767,-0.25707 1.04746,-0.40686" id="path13176" style="fill:none;stroke:#000000;stroke-width:0.98619282;stroke-linecap:round;stroke-linejoin:round" ns1:connector-curvature="0" />
        <path d="m 382.16486,503.90514 -2.531,16.219 0,0.242 0,0" id="path13178" style="fill:none;stroke:#000000;stroke-width:1;stroke-linecap:round;stroke-linejoin:round" ns1:connector-curvature="0" />
        <path d="m 380.85586,512.26814 c 0.36,-0.148 0.727,-0.297 1.09,-0.402 0.359,-0.106 0.727,-0.168 1.09,-0.168 0.359,0 0.726,0.058 1.09,0.168 0.363,0.105 0.726,0.254 1.09,0.402 0.363,0.149 0.726,0.297 1.089,0.406 0.364,0.102 0.727,0.164 1.09,0.164 0.364,0 0.727,-0.058 1.09,-0.164 0.363,-0.105 0.727,-0.254 1.09,-0.406" id="path13180" style="fill:none;stroke:#000000;stroke-width:1;stroke-linecap:round;stroke-linejoin:round" ns1:connector-curvature="0" />
        <path d="m 390.56626,504.56998 -0.97449,7.47049 0,0.11233 0,0" id="path13182" style="fill:none;stroke:#000000;stroke-width:0.96009302;stroke-linecap:round" ns1:connector-curvature="0" />
      </g>
      <path d="m 212.70522,437.17065 c 0,21.91818 0,43.83634 0,65.7545 0,18.74193 0,63.64222 0,81.81684" id="path14169" style="fill:none;stroke:#000000;stroke-width:1.15131533;stroke-linecap:round;stroke-linejoin:miter;stroke-miterlimit:4;stroke-opacity:1;stroke-dasharray:1.15131533, 3.45394599;stroke-dashoffset:0" ns1:connector-curvature="0" />
    </g>
    <text id="Zeitnahme-Beschreibung" style="font-size:14px;font-style:normal;font-weight:normal;text-align:center;text-anchor:middle;fill:#000000;fill-opacity:1;stroke:none;display:inline;font-family:Arial Black" transform="matrix(0.25881905,-0.96592583,0.96592583,0.25881905,0,0)" x="-376.04727" y="350.70123" xml:space="preserve"><tspan id="tspan13204" x="-376.04727" y="350.70123">Zeitnahme</tspan></text>
    <g id="Tor1" style="fill:#ff6600;display:inline" transform="translate(106.3464,147.4471)">
      <path d="m 290.05629,503.15009 c 0,-3.64056 -2.95198,-6.59222 -6.59173,-6.59222 -3.63875,0 -6.59173,2.95166 -6.59173,6.59222 0,3.64057 2.95298,6.59124 6.59173,6.59124 3.63975,0 6.59173,-2.95067 6.59173,-6.59124 z" id="Tor1_innen" style="fill:#ff6600;stroke:#000000;stroke-width:0.98976141" ns1:connector-curvature="0" />
      <path d="m 290.05629,559.84301 c 0,-3.64058 -2.95199,-6.59222 -6.59173,-6.59222 -3.63875,0 -6.59173,2.95164 -6.59173,6.59222 0,3.64057 2.95298,6.59124 6.59173,6.59124 3.63974,0 6.59173,-2.95067 6.59173,-6.59124 z" id="Tor1_aussen" style="fill:#ff6600;stroke:#000000;stroke-width:0.98976135" ns1:connector-curvature="0" />
      <text id="text9392" style="font-size:12px;font-style:normal;font-weight:normal;fill:#000000;fill-opacity:1;stroke:none;font-family:Arial Black" x="280.02512" y="564.21069" xml:space="preserve"><tspan id="tspan9394" x="280.02512" y="564.21069">1</tspan></text>
    </g>
    <g id="Tor2" style="fill:#ff6600;display:inline" transform="translate(212.6457,-29.7182)">
      <path d="m 307.77283,503.15009 c 0,-3.64056 -2.95198,-6.59222 -6.59173,-6.59222 -3.63875,0 -6.59173,2.95166 -6.59173,6.59222 0,3.64057 2.95298,6.59124 6.59173,6.59124 3.63975,0 6.59173,-2.95067 6.59173,-6.59124 z" id="Tor2_aussen" style="fill:#ff6600;stroke:#000000;stroke-width:0.98976141" ns1:connector-curvature="0" />
      <path d="m 307.77283,559.84301 c 0,-3.64058 -2.95199,-6.59222 -6.59173,-6.59222 -3.63875,0 -6.59173,2.95164 -6.59173,6.59222 0,3.64057 2.95298,6.59124 6.59173,6.59124 3.63974,0 6.59173,-2.95067 6.59173,-6.59124 z" id="Tor2_innen" style="fill:#ff6600;stroke:#000000;stroke-width:0.98976135" ns1:connector-curvature="0" />
      <text id="text9396" style="font-size:12px;font-style:normal;font-weight:normal;fill:#000000;fill-opacity:1;stroke:none;font-family:Arial Black" x="297.28461" y="564.21069" xml:space="preserve"><tspan id="tspan9398" x="297.28461" y="564.21069">2</tspan></text>
    </g>
    <g id="Tor3" style="fill:#ff6600;display:inline" transform="translate(318.9448,147.4471)">
      <path d="m 325.48936,503.15009 c 0,-3.64056 -2.95198,-6.59222 -6.59173,-6.59222 -3.63875,0 -6.59173,2.95166 -6.59173,6.59222 0,3.64057 2.95298,6.59124 6.59173,6.59124 3.63975,0 6.59173,-2.95067 6.59173,-6.59124 z" id="Tor3_innen" style="fill:#ff6600;stroke:#000000;stroke-width:0.98976141" ns1:connector-curvature="0" />
      <path d="m 325.48936,559.84301 c 0,-3.64058 -2.95199,-6.59222 -6.59173,-6.59222 -3.63875,0 -6.59173,2.95164 -6.59173,6.59222 0,3.64057 2.95298,6.59124 6.59173,6.59124 3.63974,0 6.59173,-2.95067 6.59173,-6.59124 z" id="Tor3_aussen" style="fill:#ff6600;stroke:#000000;stroke-width:0.98976135" ns1:connector-curvature="0" />
      <text id="text9400" style="font-size:12px;font-style:normal;font-weight:normal;fill:#000000;fill-opacity:1;stroke:none;font-family:Arial Black" x="314.92792" y="564.13745" xml:space="preserve"><tspan id="tspan9402" x="314.92792" y="564.13745">3</tspan></text>
    </g>
    <g id="Tor4" style="fill:#ff6600;display:inline" transform="translate(425.2439,-29.7182)">
      <path d="m 343.2059,503.15009 c 0,-3.64056 -2.95198,-6.59222 -6.59173,-6.59222 -3.63875,0 -6.59173,2.95166 -6.59173,6.59222 0,3.64057 2.95298,6.59124 6.59173,6.59124 3.63975,0 6.59173,-2.95067 6.59173,-6.59124 z" id="Tor4_aussen" style="fill:#ff6600;stroke:#000000;stroke-width:0.98976141" ns1:connector-curvature="0" />
      <path d="m 343.2059,559.84301 c 0,-3.64058 -2.95199,-6.59222 -6.59173,-6.59222 -3.63875,0 -6.59173,2.95164 -6.59173,6.59222 0,3.64057 2.95298,6.59124 6.59173,6.59124 3.63974,0 6.59173,-2.95067 6.59173,-6.59124 z" id="Tor4_innen" style="fill:#ff6600;stroke:#000000;stroke-width:0.98976135" ns1:connector-curvature="0" />
      <text id="text9404" style="font-size:12px;font-style:normal;font-weight:normal;fill:#000000;fill-opacity:1;stroke:none;font-family:Arial Black" x="332.61514" y="564.21069" xml:space="preserve"><tspan id="tspan9406" x="332.61514" y="564.21069">4</tspan></text>
    </g>
    <g id="Tor5" style="fill:#ff6600;display:inline" transform="translate(531.5431,97.8408)">
      <path d="m 360.92244,503.15009 c 0,-3.64056 -2.95198,-6.59222 -6.59173,-6.59222 -3.63875,0 -6.59173,2.95166 -6.59173,6.59222 0,3.64057 2.95298,6.59124 6.59173,6.59124 3.63975,0 6.59173,-2.95067 6.59173,-6.59124 z" id="Tor5_oben" style="fill:#ff6600;stroke:#000000;stroke-width:0.98976141" ns1:connector-curvature="0" />
      <path d="m 360.92244,559.84301 c 0,-3.64058 -2.95199,-6.59222 -6.59173,-6.59222 -3.63875,0 -6.59173,2.95164 -6.59173,6.59222 0,3.64057 2.95298,6.59124 6.59173,6.59124 3.63974,0 6.59173,-2.95067 6.59173,-6.59124 z" id="Tor5_unten" style="fill:#ff6600;stroke:#000000;stroke-width:0.98976135" ns1:connector-curvature="0" />
      <text id="text9408" style="font-size:12px;font-style:normal;font-weight:normal;fill:#000000;fill-opacity:1;stroke:none;font-family:Arial Black" x="350.36685" y="564.06421" xml:space="preserve"><tspan id="tspan9410" x="350.36685" y="564.06421">5</tspan></text>
    </g>
    <g id="Speedboje" style="display:inline" transform="translate(543.71541,-33.29155)">
      <path d="m 385.39442,506.69291 c 0,-3.45427 -2.79894,-6.26056 -6.26056,-6.26056 -3.45291,0 -6.26057,2.80004 -6.26057,6.26056 0,3.45427 2.80069,6.26056 6.26057,6.26056 3.45464,0 6.26056,-2.80003 6.26056,-6.26056 z" id="Speedboje_Boje" style="fill:#0000ff;fill-opacity:1;stroke:#0000ff;stroke-width:1.65209699" ns1:connector-curvature="0" />
      <g id="Speedboje_Fahne" style="stroke:#0000ff">
        <path d="m 382.0414,486.73162 c 0.34883,-0.15079 0.69863,-0.30463 1.04746,-0.4109 0.34884,-0.10728 0.69767,-0.17002 1.04747,-0.17002 0.34883,0 0.69767,0.0587 1.04746,0.17002 0.34884,0.10627 0.69767,0.25606 1.04651,0.4109 0.34595,0.14979 0.69863,0.30059 1.04747,0.40686 0.34595,0.10728 0.69863,0.17002 1.04746,0.17002 0.34499,0 0.69863,-0.0597 1.04747,-0.17002 0.34499,-0.10627 0.69767,-0.25707 1.04746,-0.40686" id="path12209" style="fill:none;stroke:#0000ff;stroke-width:0.98619282;stroke-linecap:round;stroke-linejoin:round" ns1:connector-curvature="0" />
        <path d="m 382.16487,486.1886 -2.531,16.219 0,0.242 0,0" id="path12211" style="fill:none;stroke:#0000ff;stroke-width:1;stroke-linecap:round;stroke-linejoin:round" ns1:connector-curvature="0" />
        <path d="m 380.85587,494.5516 c 0.36,-0.148 0.727,-0.297 1.09,-0.402 0.359,-0.106 0.727,-0.168 1.09,-0.168 0.359,0 0.726,0.058 1.09,0.168 0.363,0.105 0.726,0.254 1.09,0.402 0.363,0.149 0.726,0.297 1.089,0.406 0.364,0.102 0.727,0.164 1.09,0.164 0.364,0 0.727,-0.058 1.09,-0.164 0.363,-0.105 0.727,-0.254 1.09,-0.406" id="path12213" style="fill:none;stroke:#0000ff;stroke-width:1;stroke-linecap:round;stroke-linejoin:round" ns1:connector-curvature="0" />
        <path d="m 390.56627,486.85344 -0.97449,7.47049 0,0.11233 0,0" id="path12215" style="fill:none;stroke:#0000ff;stroke-width:0.96009302;stroke-linecap:round" ns1:connector-curvature="0" />
      </g>
      <text id="text13152" style="font-size:7.72663832px;font-style:normal;font-weight:normal;fill:#000000;fill-opacity:1;stroke:none;font-family:Arial Black" x="383.31805" y="493.63391" xml:space="preserve"><tspan id="tspan13154" x="383.31805" y="493.63391">7</tspan></text>
    </g>
    <g id="Schikane" style="display:inline" transform="translate(17.76371,129.7306)">
      <text id="text9412" style="font-size:12px;font-style:normal;font-weight:normal;fill:#000000;fill-opacity:1;stroke:none;font-family:Arial Black" x="332.5712" y="383.42877" xml:space="preserve"><tspan id="tspan9414" x="332.5712" y="383.42877">6</tspan></text>
      <g id="Ring" style="fill:none">
        <path d="m 394.98122,521.45618 a 1.7716577,2.1653595 0 1 1 -3.54331,0 1.7716577,2.1653595 0 1 1 3.54331,0 z" id="path8826" style="fill:none;stroke:#ff0000;stroke-width:1.05771267;stroke-linecap:butt;stroke-linejoin:round;stroke-miterlimit:4;stroke-opacity:1;stroke-dasharray:2.11542543, 1.05771271;stroke-dashoffset:0" transform="matrix(4.72439,0,0,3.865411,-1521.061,-1636.509)" />
        <path d="m 347.22087,372.30341 a 10.445539,9.0452852 0 1 1 -20.89108,0 10.445539,9.0452852 0 1 1 20.89108,0 z" id="path3620" style="fill:none;stroke:#000000;stroke-width:0.3429167;stroke-linecap:round;stroke-linejoin:round;stroke-miterlimit:4;stroke-opacity:1;stroke-dasharray:none;stroke-dashoffset:0;display:inline" transform="matrix(0.58334,0,0,0.673644,140.1598,128.3338)" />
        <path d="m 347.22087,372.30341 a 10.445539,9.0452852 0 1 1 -20.89108,0 10.445539,9.0452852 0 1 1 20.89108,0 z" id="path2733" style="fill:none;stroke:#000000;stroke-width:0.3429167;stroke-linecap:round;stroke-linejoin:round;stroke-miterlimit:4;stroke-opacity:1;stroke-dasharray:none;stroke-dashoffset:0;display:inline" transform="matrix(0.999998,0,0,1.154803,-0.160332,-50.80338)" />
      </g>
    </g>
    <text id="text3866" style="font-size:10px;font-style:normal;font-weight:normal;fill:#000000;fill-opacity:1;stroke:none;display:inline;font-family:Verdana" x="977.40033" y="632.76343" xml:space="preserve"><tspan id="tspan3868" x="977.40033" y="632.76343">2,5 m</tspan></text>
    <path d="m 885.68737,607.67094 93.88837,0" id="path3894" style="fill:none;stroke:#000000;stroke-width:0.5;stroke-linecap:round;stroke-linejoin:miter;stroke-miterlimit:4;stroke-opacity:1;stroke-dasharray:none;display:inline" ns1:connector-curvature="0" />
    <path d="m 885.68737,651.11618 93.88837,0" id="path3896" style="fill:none;stroke:#000000;stroke-width:0.5;stroke-linecap:round;stroke-linejoin:miter;stroke-miterlimit:4;stroke-opacity:1;stroke-dasharray:none;display:inline" ns1:connector-curvature="0" />
    <path d="m 975.34785,609.7993 0,39.48011" id="path3900" style="fill:none;stroke:#000000;stroke-width:0.5;stroke-linecap:butt;stroke-linejoin:miter;stroke-miterlimit:4;stroke-opacity:1;stroke-dasharray:none;marker-start:url(#Arrow1Lstart);marker-end:url(#Arrow1Lend);display:inline" ns1:connector-curvature="0" />
    <g id="g8094">
      <g id="g7046" transform="translate(17.76371,139.7306)">
        <path d="m 212.47247,607.68501 0,37.17701" id="path2030" style="fill:none;stroke:#000000;stroke-width:0.78600991px;stroke-linecap:butt;stroke-linejoin:miter;stroke-opacity:1" ns1:connector-curvature="0" />
        <path d="m 336.40439,607.57801 0,18.15725" id="path2035" style="fill:none;stroke:#000000;stroke-width:0.54950893px;stroke-linecap:butt;stroke-linejoin:miter;stroke-opacity:1" ns1:connector-curvature="0" />
        <path d="m 371.87382,607.57801 0,18.15725" id="path2037" style="fill:none;stroke:#000000;stroke-width:0.54950893px;stroke-linecap:butt;stroke-linejoin:miter;stroke-opacity:1" ns1:connector-curvature="0" />
        <path d="m 496.01737,607.57801 0,18.15725" id="path2039" style="fill:none;stroke:#000000;stroke-width:0.54950893px;stroke-linecap:butt;stroke-linejoin:miter;stroke-opacity:1" ns1:connector-curvature="0" />
        <path d="m 620.16089,607.57801 0,18.15725" id="path2041" style="fill:none;stroke:#000000;stroke-width:0.54950893px;stroke-linecap:butt;stroke-linejoin:miter;stroke-opacity:1" ns1:connector-curvature="0" />
        <path d="m 744.30441,607.57801 0,18.15725" id="path2043" style="fill:none;stroke:#000000;stroke-width:0.54950893px;stroke-linecap:butt;stroke-linejoin:miter;stroke-opacity:1" ns1:connector-curvature="0" />
        <path d="m 903.71896,607.68501 0,37.17701" id="path2045" style="fill:none;stroke:#000000;stroke-width:0.78600991px;stroke-linecap:butt;stroke-linejoin:miter;stroke-opacity:1" ns1:connector-curvature="0" />
        <path d="m 213.91914,639.0145 688.50869,0" id="path2047" style="fill:none;stroke:#000000;stroke-width:0.51351923;stroke-linecap:butt;stroke-linejoin:miter;stroke-miterlimit:4;stroke-opacity:1;stroke-dasharray:none;marker-start:url(#Arrow1Lstart);marker-mid:none;marker-end:url(#Arrow1Lend)" ns1:connector-curvature="0" />
        <path d="m 213.94857,620.95035 121.287,0" id="path3114" style="fill:none;stroke:#000000;stroke-width:0.5;stroke-linecap:butt;stroke-linejoin:miter;stroke-miterlimit:4;stroke-opacity:1;stroke-dasharray:none;marker-start:url(#Arrow1Lstart);marker-mid:none;marker-end:url(#Arrow1Lend)" ns1:connector-curvature="0" />
        <path d="m 337.80971,620.95035 32.565,0" id="path3116" style="fill:none;stroke:#000000;stroke-width:0.5;stroke-linecap:butt;stroke-linejoin:miter;stroke-miterlimit:4;stroke-opacity:1;stroke-dasharray:none;marker-start:url(#Arrow1Lstart);marker-mid:none;marker-end:url(#Arrow1Lend)" ns1:connector-curvature="0" />
        <path d="m 373.26164,620.95035 121.53644,0" id="path3118" style="fill:none;stroke:#000000;stroke-width:0.5;stroke-linecap:butt;stroke-linejoin:miter;stroke-miterlimit:4;stroke-opacity:1;stroke-dasharray:none;marker-start:url(#Arrow1Lstart);marker-mid:none;marker-end:url(#Arrow1Lend)" ns1:connector-curvature="0" />
        <path d="m 497.26179,620.95035 121.47234,0" id="path3120" style="fill:none;stroke:#000000;stroke-width:0.5;stroke-linecap:butt;stroke-linejoin:miter;stroke-miterlimit:4;stroke-opacity:1;stroke-dasharray:none;marker-start:url(#Arrow1Lstart);marker-mid:none;marker-end:url(#Arrow1Lend)" ns1:connector-curvature="0" />
        <path d="m 621.52337,620.95035 121.33614,0" id="path3122" style="fill:none;stroke:#000000;stroke-width:0.5;stroke-linecap:butt;stroke-linejoin:miter;stroke-miterlimit:4;stroke-opacity:1;stroke-dasharray:none;marker-start:url(#Arrow1Lstart);marker-mid:none;marker-end:url(#Arrow1Lend)" ns1:connector-curvature="0" />
        <path d="m 745.58566,620.95035 120.962,0" id="path3124" style="fill:none;stroke:#000000;stroke-width:0.5;stroke-linecap:butt;stroke-linejoin:miter;stroke-miterlimit:4;stroke-opacity:1;stroke-dasharray:none;marker-start:url(#Arrow1Lstart);marker-mid:none;marker-end:url(#Arrow1Lend)" ns1:connector-curvature="0" />
        <text id="text3846" style="font-size:10px;font-style:normal;font-weight:normal;fill:#000000;fill-opacity:1;stroke:none;font-family:Verdana" x="263.70828" y="618.77051" xml:space="preserve"><tspan id="tspan3848" x="263.70828" y="618.77051">15 m</tspan><tspan id="tspan3850" x="263.70828" y="631.27051" /></text>
        <text id="text3854" style="font-size:10px;font-style:normal;font-weight:normal;fill:#000000;fill-opacity:1;stroke:none;font-family:Verdana" x="528.6991" y="637.38824" xml:space="preserve"><tspan id="tspan3858" x="528.6991" y="637.38824">85 m</tspan></text>
        <text id="text3862" style="font-size:10px;font-style:normal;font-weight:normal;fill:#000000;fill-opacity:1;stroke:none;font-family:Verdana" x="345.54242" y="618.77051" xml:space="preserve"><tspan id="tspan3864" x="345.54242" y="618.77051">5 m</tspan></text>
        <text id="text3870" style="font-size:10px;font-style:normal;font-weight:normal;fill:#000000;fill-opacity:1;stroke:none;font-family:Verdana" x="423.14606" y="618.77051" xml:space="preserve"><tspan id="tspan3872" x="423.14606" y="618.77051">15 m</tspan><tspan id="tspan3874" x="423.14606" y="631.27051" /></text>
        <text id="text3876" style="font-size:10px;font-style:normal;font-weight:normal;fill:#000000;fill-opacity:1;stroke:none;font-family:Verdana" x="547.1142" y="618.77051" xml:space="preserve"><tspan id="tspan3878" x="547.1142" y="618.77051">15 m</tspan><tspan id="tspan3880" x="547.1142" y="631.27051" /></text>
        <text id="text3882" style="font-size:10px;font-style:normal;font-weight:normal;fill:#000000;fill-opacity:1;stroke:none;font-family:Verdana" x="671.30768" y="618.77051" xml:space="preserve"><tspan id="tspan3884" x="671.30768" y="618.77051">15 m</tspan><tspan id="tspan3886" x="671.30768" y="631.27051" /></text>
        <text id="text3888" style="font-size:10px;font-style:normal;font-weight:normal;fill:#000000;fill-opacity:1;stroke:none;font-family:Verdana" x="795.18286" y="618.77051" xml:space="preserve"><tspan id="tspan3890" x="795.18286" y="618.77051">15 m</tspan><tspan id="tspan3892" x="795.18286" y="631.27051" /></text>
        <path d="m 868.13207,607.53142 0,18.15724" id="path2035-3" style="fill:none;stroke:#000000;stroke-width:0.54950893px;stroke-linecap:butt;stroke-linejoin:miter;stroke-opacity:1;display:inline" ns1:connector-curvature="0" />
        <path d="m 869.53739,620.90376 32.565,0" id="path3116-9" style="fill:none;stroke:#000000;stroke-width:0.5;stroke-linecap:butt;stroke-linejoin:miter;stroke-miterlimit:4;stroke-opacity:1;stroke-dasharray:none;marker-start:url(#Arrow1Lstart);marker-mid:none;marker-end:url(#Arrow1Lend);display:inline" ns1:connector-curvature="0" />
        <text id="text3862-2" style="font-size:10px;font-style:normal;font-weight:normal;fill:#000000;fill-opacity:1;stroke:none;display:inline;font-family:Verdana" x="877.27014" y="618.72388" xml:space="preserve"><tspan id="tspan3864-0" x="877.27014" y="618.72388">5 m</tspan></text>
      </g>
      <text id="text5647" style="font-size:9px;font-style:normal;font-weight:normal;fill:#000000;fill-opacity:1;stroke:none;font-family:Verdana" x="872.84247" y="792.3338" xml:space="preserve"><tspan id="tspan5649" style="text-align:center;text-anchor:middle" x="872.84247" y="792.3338">die angegebenen Maße</tspan><tspan id="tspan5651" style="text-align:center;text-anchor:middle" x="872.84247" y="803.5838">sind Richtwerte!</tspan></text>
      <g id="g7030" transform="translate(-0.23629,129.7306)">
        <path d="m 1029.7323,549.21259 37.177,0" id="path6974" style="fill:none;stroke:#000000;stroke-width:0.78600991px;stroke-linecap:butt;stroke-linejoin:miter;stroke-opacity:1;display:inline" ns1:connector-curvature="0" />
        <path d="m 1029.6253,499.60629 18.1573,0" id="path6976" style="fill:none;stroke:#000000;stroke-width:0.54950893px;stroke-linecap:butt;stroke-linejoin:miter;stroke-opacity:1;display:inline" ns1:connector-curvature="0" />
        <path d="m 1029.5665,372.04726 37.5087,0" id="path6978" style="fill:none;stroke:#000000;stroke-width:0.38781556px;stroke-linecap:butt;stroke-linejoin:miter;stroke-opacity:1;display:inline" ns1:connector-curvature="0" />
        <path d="m 1061.1755,547.7849 0,-174.50199" id="path6980" style="fill:none;stroke:#000000;stroke-width:0.5;stroke-linecap:butt;stroke-linejoin:miter;stroke-miterlimit:4;stroke-opacity:1;stroke-dasharray:none;marker-start:url(#Arrow1Lstart);marker-mid:none;marker-end:url(#Arrow1Lend);display:inline" ns1:connector-curvature="0" />
        <path d="m 1042.9977,547.76828 0,-46.89396" id="path6982" style="fill:none;stroke:#000000;stroke-width:0.5;stroke-linecap:butt;stroke-linejoin:miter;stroke-miterlimit:4;stroke-opacity:1;stroke-dasharray:none;marker-start:url(#Arrow1Lstart);marker-mid:none;marker-end:url(#Arrow1Lend);display:inline" ns1:connector-curvature="0" />
        <path d="m 1042.9977,498.18786 0,-124.85303" id="path6984" style="fill:none;stroke:#000000;stroke-width:0.5;stroke-linecap:butt;stroke-linejoin:miter;stroke-miterlimit:4;stroke-opacity:1;stroke-dasharray:none;marker-start:url(#Arrow1Lstart);marker-mid:none;marker-end:url(#Arrow1Lend);display:inline" ns1:connector-curvature="0" />
        <text id="text6986" style="font-size:10px;font-style:normal;font-weight:normal;text-align:center;text-anchor:middle;fill:#000000;fill-opacity:1;stroke:none;display:inline;font-family:Verdana" transform="matrix(0,-1,1,0,0,0)" x="-524.51172" y="1040.8177" xml:space="preserve"><tspan id="tspan6988" x="-524.51172" y="1040.8177">10 m</tspan><tspan id="tspan6990" x="-524.51172" y="1053.3177" /></text>
        <text id="text6996" style="font-size:10px;font-style:normal;font-weight:normal;text-align:center;text-anchor:middle;fill:#000000;fill-opacity:1;stroke:none;display:inline;font-family:Verdana" transform="matrix(0,-1,1,0,0,0)" x="-435.95178" y="1040.8177" xml:space="preserve"><tspan id="tspan6998" x="-435.95178" y="1040.8177">15 m</tspan></text>
        <text id="text7024" style="font-size:10px;font-style:normal;font-weight:normal;text-align:center;text-anchor:middle;fill:#000000;fill-opacity:1;stroke:none;display:inline;font-family:Verdana" transform="matrix(0,-1,1,0,0,0)" x="-460.73898" y="1059.0677" xml:space="preserve"><tspan id="tspan7026" x="-460.73898" y="1059.0677">25 m</tspan><tspan id="tspan7028" x="-460.73898" y="1071.5677" /></text>
      </g>
    </g>
    <g id="Speedboje-2" style="display:inline" transform="translate(542.62385,212.49864)">
      <path d="m 385.39442,506.69291 c 0,-3.45427 -2.79894,-6.26056 -6.26056,-6.26056 -3.45291,0 -6.26057,2.80004 -6.26057,6.26056 0,3.45427 2.80069,6.26056 6.26057,6.26056 3.45464,0 6.26056,-2.80003 6.26056,-6.26056 z" id="Speedboje_Boje-6" style="fill:#0000ff;fill-opacity:1;stroke:#0000ff;stroke-width:1.65209699" ns1:connector-curvature="0" />
      <g id="Speedboje_Fahne-7" style="fill:none;stroke:#0000ff">
        <path d="m 382.0414,486.73162 c 0.34883,-0.15079 0.69863,-0.30463 1.04746,-0.4109 0.34884,-0.10728 0.69767,-0.17002 1.04747,-0.17002 0.34883,0 0.69767,0.0587 1.04746,0.17002 0.34884,0.10627 0.69767,0.25606 1.04651,0.4109 0.34595,0.14979 0.69863,0.30059 1.04747,0.40686 0.34595,0.10728 0.69863,0.17002 1.04746,0.17002 0.34499,0 0.69863,-0.0597 1.04747,-0.17002 0.34499,-0.10627 0.69767,-0.25707 1.04746,-0.40686" id="path12209-4" style="fill:none;stroke:#0000ff;stroke-width:0.98619282;stroke-linecap:round;stroke-linejoin:round" ns1:connector-curvature="0" />
        <path d="m 382.16487,486.1886 -2.531,16.219 0,0.242 0,0" id="path12211-9" style="fill:none;stroke:#0000ff;stroke-width:1;stroke-linecap:round;stroke-linejoin:round" ns1:connector-curvature="0" />
        <path d="m 380.85587,494.5516 c 0.36,-0.148 0.727,-0.297 1.09,-0.402 0.359,-0.106 0.727,-0.168 1.09,-0.168 0.359,0 0.726,0.058 1.09,0.168 0.363,0.105 0.726,0.254 1.09,0.402 0.363,0.149 0.726,0.297 1.089,0.406 0.364,0.102 0.727,0.164 1.09,0.164 0.364,0 0.727,-0.058 1.09,-0.164 0.363,-0.105 0.727,-0.254 1.09,-0.406" id="path12213-0" style="fill:none;stroke:#0000ff;stroke-width:1;stroke-linecap:round;stroke-linejoin:round" ns1:connector-curvature="0" />
        <path d="m 390.56627,486.85344 -0.97449,7.47049 0,0.11233 0,0" id="path12215-2" style="fill:none;stroke:#0000ff;stroke-width:0.96009302;stroke-linecap:round" ns1:connector-curvature="0" />
      </g>
      <text id="text13152-6" style="font-size:7.72663832px;font-style:normal;font-weight:normal;fill:#000000;fill-opacity:1;stroke:none;font-family:Arial Black" x="383.31805" y="493.63391" xml:space="preserve"><tspan id="tspan13154-4" x="383.31805" y="493.63391">8</tspan></text>
    </g>
    <g id="Start+Ziel" style="display:inline" transform="translate(-37.98779,57.66916)">
      <path d="m 290.05629,503.15009 c 0,-3.64056 -2.95198,-6.59222 -6.59173,-6.59222 -3.63875,0 -6.59173,2.95166 -6.59173,6.59222 0,3.64057 2.95298,6.59124 6.59173,6.59124 3.63975,0 6.59173,-2.95067 6.59173,-6.59124 z" id="Tor1_innen-7" style="fill:#ffff00;stroke:#000000;stroke-width:0.98976141" ns1:connector-curvature="0" />
      <path d="m 290.05629,559.84301 c 0,-3.64058 -2.95199,-6.59222 -6.59173,-6.59222 -3.63875,0 -6.59173,2.95164 -6.59173,6.59222 0,3.64057 2.95298,6.59124 6.59173,6.59124 3.63974,0 6.59173,-2.95067 6.59173,-6.59124 z" id="Tor1_aussen-3" style="fill:#ffff00;stroke:#000000;stroke-width:0.98976135" ns1:connector-curvature="0" />
      <text id="text9392-1" style="font-size:12px;font-style:normal;font-weight:normal;fill:#000000;fill-opacity:1;stroke:none;font-family:Arial Black" x="280.02512" y="564.21069" xml:space="preserve"><tspan id="tspan9394-5" x="280.02512" y="564.21069">S</tspan></text>
    </g>
    <text id="Start_Ziel-Beschreibung-9" style="font-size:14px;font-style:normal;font-weight:normal;text-align:center;text-anchor:middle;fill:#000000;fill-opacity:1;stroke:none;display:inline;font-family:Arial Black" transform="matrix(0.25881905,-0.96592583,0.96592583,0.25881905,0,0)" x="-439.89474" y="381.08112" xml:space="preserve"><tspan id="tspan13204-8" style="font-size:10px;writing-mode:lr-tb" x="-439.89474" y="381.08112">Start/Ziel</tspan></text>
    <g id="g4347" transform="matrix(0.27550463,0,0,0.27550463,757.16562,273.31672)">
      <path d="m 832.09375,59.0625 c -0.36091,0.303055 -1.10784,0.915695 -1.46875,1.21875 0.63091,1.057938 1.33603,2.055098 2,3.09375 -0.70254,0.86784 -1.47284,1.718668 -1.96875,2.71875 -0.79345,2.983715 1.25408,6.150815 3.9375,7.34375 2.03322,0.636416 3.10674,-1.926002 3.25,-3.5625 0.28928,0.242444 0.61146,0.510311 0.90625,0.75 0.32785,-0.429787 0.63169,-0.891922 0.9375,-1.34375 -2.86249,-3.162793 -5.11696,-6.766677 -7.59375,-10.21875 z m 1.84375,5.8125 c 1.35548,1.939553 2.97237,4.393569 1.8125,6.8125 -1.85415,-0.826514 -3.47332,-2.67364 -3.4375,-4.78125 -0.0386,-1.019367 0.8894,-1.540852 1.625,-2.03125 z" id="path6" style="fill:#231f20" transform="matrix(3.6297031,0,0,3.6297031,-2630.4388,-172.28647)" ns1:connector-curvature="0" />
      <path d="M 910.22,42.57 1139,42 l 0,394 -622.30145,-0.97947 z" id="path8" style="fill:#de771c" ns1:connector-curvature="0" />
      <path d="m 481.94002,42.980784 386.60687,0 -112.02835,112.028356 -386.60687,0 z" id="path10" style="fill:#231f20" ns1:connector-curvature="0" />
      <path d="m 963.45,61.54 c 46.5,-4.88 92.35,19.34 120.53,55.47 33.15,41.62 45.85,97.15 39.73,149.47 -6.16,49.08 -30.22,97.09 -70.57,126.7 -33.56,24.84 -79.37,33.47 -119.13,19.78 -23.16,-7.15 -43.51,-21.45 -60.29,-38.68 -16.71,-17.82 -29.3,-39.22 -38.02,-61.97 -19.77,-55.44 -16.39,-119.51 12.46,-171.2 12.86,-22.43 30.05,-42.88 51.86,-57.07 18.64,-12.94 40.81,-20.76 63.43,-22.5 z" id="path12" style="fill:#ffffff" ns1:connector-curvature="0" />
      <path d="m 369.34,81.14 c 2.86,-0.44 6.6,-0.64 8.82,1.68 5.92,6.86 10.72,14.59 15.9,22 -1.3,1.12 -3.91,3.35 -5.21,4.46 -4.87,-6.87 -9.69,-13.78 -14.77,-20.5 -1.34,0.22 -2.67,0.44 -4,0.67 -2.21,10.83 5.78,19.12 11.11,27.45 -1.11,1.32 -3.32,3.94 -4.43,5.25 -6.35,-9.28 -13.11,-18.26 -20.25,-26.95 1.22,-1.37 2.44,-2.73 3.66,-4.09 1.02,0.81 2.05,1.63 3.08,2.44 1.7,-4.14 2.19,-9.56 6.09,-12.41 z" id="path16" style="fill:#231f20" ns1:connector-curvature="0" />
      <path d="m 966.46,83.62 c 15,-1.35 30.08,0.9 44.72,4.12 25.4,6.39 46.05,23.85 62.77,43.3 14.44,18.6 25.27,40.31 29.33,63.64 5.08,29.83 6.34,60.71 -0.02,90.46 -3.78,18.4 -12.45,35.31 -21.6,51.55 -12.84,19.19 -29.84,35.96 -50.62,46.38 -16.32,9.13 -35.07,12.63 -53.45,14.5 -22.48,0.7 -45.42,-4.61 -64.71,-16.41 -18.92,-11.74 -37.02,-26.32 -47.99,-46.08 -13.73,-22.29 -21.4,-47.99 -22.57,-74.12 -0.66,-23.18 -1.65,-46.85 4.2,-69.52 7.06,-28.22 22.1,-54.61 43.74,-74.18 11.85,-10.57 24.62,-21.1 40.05,-25.86 11.65,-4.13 23.91,-6.29 36.15,-7.78 z" id="path18" style="fill:#231f20" ns1:connector-curvature="0" />
      <path d="m 957.62,92.11 c 3.33,-3.14 6.82,-6.68 11.96,-6.16 -3.45,2.97 -7.54,5.08 -11.96,6.16 z" id="path20" style="fill:#ffffff" ns1:connector-curvature="0" />
      <path d="m 968.36,89.86 c 3.54,-3.44 8.48,-3.74 13.19,-3.66 -4.05,2.27 -8.55,3.57 -13.19,3.66 z" id="path22" style="fill:#ffffff" ns1:connector-curvature="0" />
      <path d="m 945.55,93.18 c 3.91,-2.69 8.08,-5.15 12.76,-6.24 -3.81,2.94 -7.78,6 -12.76,6.24 z" id="path24" style="fill:#ffffff" ns1:connector-curvature="0" />
      <path d="m 981.05,90.87 c 3.39,-4.83 9.55,-3.38 14.66,-3.47 -4.34,2.9 -9.58,3.42 -14.66,3.47 z" id="path26" style="fill:#ffffff" ns1:connector-curvature="0" />
      <path d="m 995.12,91.59 c 3.58,-2.78 8.31,-2.27 12.59,-2.29 -3.87,2 -8.32,2.32 -12.59,2.29 z" id="path28" style="fill:#ffffff" ns1:connector-curvature="0" />
      <path d="m 933.2,96.96 c 3.13,-3.63 7.55,-5.7 12.07,-7.08 -3.74,2.84 -7.44,5.89 -12.07,7.08 z" id="path30" style="fill:#ffffff" ns1:connector-curvature="0" />
      <path d="m 974.37,92.46 c 21.24,0.09 43.75,3.17 61.62,15.55 14.98,10.32 29.29,22.4 39.04,37.97 11.66,18.33 19.67,39.08 22.38,60.69 4.51,31.38 2.87,63.86 -6.55,94.21 -8.83,21.43 -20.12,42.7 -37.98,58 -14.73,13.63 -33.36,22.52 -52.72,27.34 -16,3.73 -32.88,5.27 -49.01,1.52 -17.22,-3.25 -32.91,-11.82 -47.06,-21.86 -16.3,-11.73 -29.95,-27.37 -38.25,-45.73 -13.51,-27.52 -15.98,-58.96 -15.74,-89.15 1.19,-24.46 5.18,-49.65 17.75,-71.06 11.34,-20.69 27.62,-38.7 47.14,-51.95 17.9,-10.65 38.84,-14.46 59.38,-15.53 z" id="path32" style="fill:#ffffff" ns1:connector-curvature="0" />
      <path d="m 1006.35,93.4 c 4.38,-0.58 8.83,-0.88 13.26,-0.28 -4.44,0.19 -8.86,0.28 -13.26,0.28 z" id="path34" style="fill:#ffffff" ns1:connector-curvature="0" />
      <path d="m 920.79,102.31 c 3.04,-3.81 6.5,-7.65 11.49,-8.72 -3.13,3.75 -6.75,7.21 -11.49,8.72 z" id="path36" style="fill:#ffffff" ns1:connector-curvature="0" />
      <path d="m 961.08,108.11 c 3.41,-11.41 17.17,-14.02 27.36,-11.63 8.05,2.36 13.55,9.96 14.96,17.97 0.81,7.58 1.52,15.52 -1.1,22.85 -2.45,7.46 -7.8,13.53 -12.31,19.8 0.39,1.53 0.8,3.06 1.2,4.59 2.43,-0.05 4.72,-0.13 7.24,-0.16 0.56,2.17 1.1,4.35 1.64,6.54 -5.15,2.37 -10.81,4.35 -13.55,9.73 15.04,0.34 30.1,-0.02 45.16,0.43 0.5,17.08 0.34,34.17 0.25,51.25 2.77,-0.24 6.04,-1.89 8.55,-0.04 1.86,2.71 3.2,6.05 3.07,9.38 -1.8,4.58 -6.58,8.47 -5.32,13.89 1.95,3.99 7.29,4.24 10.56,6.85 0.05,2.3 0.13,6.91 0.17,9.21 -2.81,2.35 -6.57,2.86 -9.99,3.8 -0.22,3.08 -0.84,6.14 -0.64,9.25 1.64,2.83 4.35,4.84 6.27,7.52 -0.3,3.37 -1.64,6.83 -3.97,9.32 -4.66,2.38 -12.43,-1.74 -13.69,5.32 -2.5,4.28 1.18,8.48 3.01,12.19 -2.37,2.2 -4.33,4.98 -7.23,6.51 -4.02,0.13 -7.75,-1.97 -11.58,-2.8 -2.2,1.11 -4.38,2.21 -6.56,3.32 -1.52,3.34 1.13,8.81 -2.02,11.4 -3.21,2.08 -7.14,2.66 -10.76,3.62 -2.83,-3.05 -5.51,-6.18 -8.61,-8.93 -1.62,8.18 -1.17,16.67 2.02,24.48 3.67,4.34 9.89,5.07 15.14,3.61 19.83,-6.49 37.32,-19.83 48.53,-37.47 3.94,-6.74 9.43,-13.6 9.01,-21.85 -0.76,-3.88 -3.36,-7.09 -5.06,-10.56 6.45,-7.1 13.46,-13.75 21.05,-19.63 2.23,-1.81 6.6,-3.28 7.54,0.58 3.07,10.16 4.76,20.83 5.89,31.37 -1.61,6.69 -10.4,5.42 -15.27,8.35 -6.57,5.66 -10.18,13.82 -15.08,20.84 -12.69,18.58 -28.18,36.5 -49.28,45.65 -8.65,3.84 -17.77,6.51 -26.79,9.3 -3.25,0.91 -6.64,2.15 -10.04,1.33 -16.83,-4.56 -33.32,-11.19 -47.29,-21.83 -17.41,-12.71 -29.86,-30.68 -41.41,-48.56 -2.02,-2.76 -3.67,-6.33 -7.04,-7.71 -4.41,-1.76 -9.05,-2.92 -13.24,-5.14 -0.87,-4.26 0.81,-8.51 1.29,-12.71 1.69,-8.45 2.74,-17.13 5.88,-25.21 7.92,2.94 13.77,9.37 20.3,14.48 2.73,2.45 6.29,4.6 7.42,8.3 -1.57,4.82 -6.26,8.42 -5.51,13.96 1.38,12.84 9.01,24.02 18.53,32.34 9.26,7.95 18.7,15.99 29.88,21.16 6.09,2.48 14.84,5.22 19.68,-1.03 7.02,-6.04 3.97,-16.17 4.43,-24.17 -3.5,2.63 -6.28,6.17 -9.92,8.57 -3.74,-0.42 -7.14,-2.21 -10.56,-3.65 -0.02,-3.1 0.08,-6.26 -0.28,-9.33 -1.84,-2.23 -4.58,-3.5 -6.81,-5.24 -3.04,1.54 -6.07,3.07 -9.15,4.51 -2.73,-2.61 -5.43,-5.21 -8.03,-7.93 1.13,-2.92 2.64,-5.75 3.36,-8.79 -1.21,-2.52 -2.53,-4.97 -3.96,-7.35 -3.39,-0.4 -7.14,0.49 -10.2,-1.23 -2.58,-2.55 -3.24,-6.34 -4.5,-9.61 2.85,-2.3 5.77,-4.53 8.72,-6.73 -1.21,-3.03 -1.17,-7.4 -4.32,-9.33 -2.57,-1.4 -5.4,-2.18 -8.12,-3.19 0.01,-3.8 0.04,-7.59 0.09,-11.37 3.24,-0.88 6.64,-1.33 9.7,-2.79 2.24,-2.05 1.73,-5.69 1.9,-8.32 -1.83,-3.25 -5.15,-5.22 -7.86,-7.65 1.35,-3.22 2.52,-6.57 4.51,-9.48 1.66,-2.44 4.97,-1.76 7.51,-2.08 0.23,-16.63 1.26,-33.24 1.48,-49.87 15.16,-0.5 30.39,0.16 45.54,-1.08 -3.22,-5.26 -6.16,-10.72 -8.78,-16.29 -2.01,-3.87 -0.15,-9.18 3.9,-10.83 3.88,-1.18 8,-1.27 12.01,-2.05 -4.83,-12.69 -14.3,-25.8 -8.92,-39.95 z" id="path38" style="fill:#231f20" ns1:connector-curvature="0" />
      <path d="m 1020.37,96.46 c 4.02,-0.95 8.11,0.04 11.3,2.49 -3.85,-0.42 -7.61,-1.42 -11.3,-2.49 z" id="path40" style="fill:#ffffff" ns1:connector-curvature="0" />
      <path d="m 920.44,97.94 c -2.38,4.25 -5.84,7.77 -9.98,10.31 1.01,-5.24 5.2,-8.46 9.98,-10.31 z" id="path42" style="fill:#ffffff" ns1:connector-curvature="0" />
      <path d="m 975.1,99.38 c 1.67,0.4 0.57,2.96 -0.88,2.56 -1.68,-0.4 -0.55,-2.89 0.88,-2.56 z" id="path44" style="fill:#ffffff" ns1:connector-curvature="0" />
      <path d="m 981.13,98.95 c 3.34,-0.53 0.02,4.27 -0.82,1.13 0.21,-0.28 0.61,-0.85 0.82,-1.13 z" id="path46" style="fill:#ffffff" ns1:connector-curvature="0" />
      <path d="m 989.67,101.38 c 0.84,-1.2 3.23,0.01 2.51,1.39 -0.87,1.24 -3.3,0.03 -2.51,-1.39 z" id="path48" style="fill:#ffffff" ns1:connector-curvature="0" />
      <path d="m 1030.16,101.04 c 4.67,-0.05 9.19,1.65 12.46,5.03 -4.61,-0.21 -9.14,-1.74 -12.46,-5.03 z" id="path50" style="fill:#ffffff" ns1:connector-curvature="0" />
      <path d="m 925.03,107.35 c 3.4,-1.86 6.81,-3.73 10.24,-5.56 5.9,11.49 10.7,23.73 18.67,34.02 -3.77,2.31 -7.54,4.6 -11.45,6.66 -2.1,-4.83 -4.17,-9.72 -7.17,-14.07 0.25,6.46 1.05,12.89 0.98,19.36 -6.86,-1.56 -12.66,-5.59 -18.82,-8.71 3.14,4.96 6.77,9.74 11.69,13.08 -2.89,1.53 -5.13,6.23 -8.72,5.48 -7.77,-10.03 -15.69,-20.02 -24.88,-28.83 3.35,-2.99 6.38,-6.66 10.56,-8.54 7.28,1.99 13.62,6.52 20.65,9.28 -0.56,-7.39 -1.33,-14.77 -1.75,-22.17 z" id="path52" style="fill:#231f20" ns1:connector-curvature="0" />
      <path d="m 968.03,103.64 c 1.85,0.21 0.87,3.88 -0.8,3.36 -1.05,-0.91 -0.57,-3.02 0.8,-3.36 z" id="path54" style="fill:#ffffff" ns1:connector-curvature="0" />
      <path d="m 1019.23,102.78 c 4.48,2.69 9,5.39 13.46,8.16 -1.24,6.44 -2.12,12.94 -2.87,19.45 6.77,-0.59 13.18,-2.83 19.38,-5.48 2.78,2.72 5.6,5.44 8.26,8.29 -8.1,1.4 -16.26,2.78 -24.1,5.22 -6.54,2.65 -9.34,9.65 -12.96,15.17 -4.15,-2.2 -7.92,-5.07 -11.74,-7.75 3.65,-4.14 7.41,-8.38 9.66,-13.48 1.26,-9.8 0.09,-19.74 0.91,-29.58 z" id="path56" style="fill:#231f20" ns1:connector-curvature="0" />
      <path d="m 821.09375,76.15625 c -0.20105,0.01703 -0.39366,0.07153 -0.59375,0.15625 -1.51803,0.413257 -2.29715,2.018651 -2.625,3.4375 -0.0331,2.636579 1.57107,5.36563 4.125,6.25 2.41067,0.545499 3.47717,-2.054545 4.75,-3.53125 -0.38846,-0.393972 -0.76779,-0.796283 -1.15625,-1.1875 -0.69152,0.9009 -1.3831,1.823203 -2.28125,2.53125 -0.68876,0.603355 -1.52999,-0.174826 -2.21875,-0.40625 1.0111,-1.429869 2.30274,-2.818556 2.71875,-4.5625 0.0217,-1.383722 -1.31137,-2.806677 -2.71875,-2.6875 z m -0.25,1.90625 c 0.57701,-0.0554 1.17227,0.449069 1.09375,1.09375 -0.1653,1.143344 -1.11461,1.936317 -1.875,2.71875 -0.37744,-1.135079 -0.90987,-2.68915 0.25,-3.5625 0.16117,-0.156349 0.33891,-0.231533 0.53125,-0.25 z" id="path58" style="fill:#231f20" transform="matrix(3.6297031,0,0,3.6297031,-2630.4388,-172.28647)" ns1:connector-curvature="0" />
      <path d="m 969.13,119.83 c -2.72,-9.68 8.97,-18.56 17.71,-14.65 6.85,2.76 8.98,11.15 9.11,17.85 1.94,10.91 -5.96,19.62 -11.46,28.13 -2.88,-2.07 -6.45,-3.98 -6.56,-8.16 -2.78,-7.79 -7.21,-14.96 -8.8,-23.17 z" id="path60" style="fill:#ffffff" ns1:connector-curvature="0" />
      <path d="m 901.01,115.71 c 0.96,-4.29 3.22,-8.26 7.22,-10.38 -1.09,4.23 -3.51,8.02 -7.22,10.38 z" id="path62" style="fill:#ffffff" ns1:connector-curvature="0" />
      <path d="m 996.27,107.54 c 1.13,-0.92 2.59,1.04 1.46,1.92 -1.15,0.92 -2.62,-1.05 -1.46,-1.92 z" id="path64" style="fill:#ffffff" ns1:connector-curvature="0" />
      <path d="m 1041.46,109.21 c 4.61,-0.31 8.95,1.57 12.06,4.86 -4.23,-1.05 -8.2,-2.91 -12.06,-4.86 z" id="path66" style="fill:#ffffff" ns1:connector-curvature="0" />
      <path d="m 963.37,110.91 c 1.77,-0.24 2.7,3.67 0.95,4.15 -1.27,-0.77 -1.92,-2.93 -0.95,-4.15 z" id="path68" style="fill:#ffffff" ns1:connector-curvature="0" />
      <path d="m 892.8,122.7 c 1.06,-3.98 3.28,-7.57 6.47,-10.19 -0.74,4.12 -2.74,8.04 -6.47,10.19 z" id="path72" style="fill:#ffffff" ns1:connector-curvature="0" />
      <path d="m 999.27,116.54 c 1.13,-0.92 2.59,1.04 1.46,1.92 -1.15,0.92 -2.62,-1.05 -1.46,-1.92 z" id="path74" style="fill:#ffffff" ns1:connector-curvature="0" />
      <path d="m 1053.34,117.21 c 3.96,0.8 7.59,2.8 10.04,6.07 -3.56,-1.66 -6.88,-3.8 -10.04,-6.07 z" id="path76" style="fill:#ffffff" ns1:connector-curvature="0" />
      <path d="m 883.78,132.51 c 0.35,-4.72 2.69,-8.99 6.35,-11.97 -1.04,4.48 -3.17,8.64 -6.35,11.97 z" id="path78" style="fill:#ffffff" ns1:connector-curvature="0" />
      <path d="m 962.91,120.53 c 1.55,1.85 2.87,3.88 4.03,6 -1.55,-1.86 -2.9,-3.87 -4.03,-6 z" id="path80" style="fill:#ffffff" ns1:connector-curvature="0" />
      <path d="m 815.09375,81.59375 c -0.93396,0.928451 -1.95009,1.766527 -2.71875,2.84375 -1.15436,1.209465 -1.07218,3.08855 -0.5625,4.5625 0.81274,1.75772 2.16711,3.622637 4.15625,4.09375 1.7467,0.151528 2.43514,-1.863267 2.90625,-3.21875 0.45458,0.914675 1.05494,1.846502 0.8125,2.9375 -0.38295,0.980796 -1.5181,1.302895 -2.28125,1.90625 0.1901,0.542744 0.37791,1.113506 0.5625,1.65625 2.25363,-0.752128 4.53401,-3.162933 3.4375,-5.65625 -1.70537,-3.29228 -4.28479,-6.033838 -6.3125,-9.125 z m -0.15625,2.84375 c 1.35548,1.939553 2.97237,4.393569 1.8125,6.8125 -1.85415,-0.826514 -3.47332,-2.67364 -3.4375,-4.78125 -0.0386,-1.019367 0.8894,-1.540852 1.625,-2.03125 z" id="path82" style="fill:#231f20" transform="matrix(3.6297031,0,0,3.6297031,-2630.4388,-172.28647)" ns1:connector-curvature="0" />
      <path d="m 1061.32,124.93 c 3.67,1.87 6.93,4.41 10.21,6.93 -3.78,-1.72 -7.55,-3.67 -10.21,-6.93 z" id="path84" style="fill:#ffffff" ns1:connector-curvature="0" />
      <path d="m 877.25,140.68 c -0.43,-3.97 1.18,-7.58 3.85,-10.31 -0.63,3.65 -1.92,7.15 -3.85,10.31 z" id="path86" style="fill:#ffffff" ns1:connector-curvature="0" />
      <path d="m 967.35,131.66 c 1.12,-1.03 3,0.86 1.99,1.99 -1.16,1.09 -3.09,-0.84 -1.99,-1.99 z" id="path88" style="fill:#ffffff" ns1:connector-curvature="0" />
      <path d="m 997.28,139.52 c 0.41,-2.34 0.99,-4.65 1.72,-6.91 -0.46,2.33 -0.98,4.65 -1.72,6.91 z" id="path90" style="fill:#ffffff" ns1:connector-curvature="0" />
      <path d="m 1060.92,134.24 c 3.83,3.52 7.21,7.52 10.37,11.67 -7.7,6.61 -14.89,13.83 -20.95,21.99 10.1,-0.17 20.5,-1.11 29.66,-5.71 1.53,3.78 3.16,7.54 4.53,11.4 -13.63,-0.25 -26.87,3.6 -40.39,4.26 -3.75,-2.27 -6.05,-6.17 -8.45,-9.71 8.41,-11.29 18.32,-21.57 25.23,-33.9 z" id="path94" style="fill:#231f20" ns1:connector-curvature="0" />
      <path d="m 1070.44,134.57 c 4.89,1.26 7.7,5.43 9.64,9.83 -3.76,-2.74 -7.67,-5.49 -9.64,-9.83 z" id="path96" style="fill:#ffffff" ns1:connector-curvature="0" />
      <path d="m 968.45,137.35 c 1.8,1.65 3.6,3.33 5.39,5.03 -1.91,-1.56 -3.7,-3.25 -5.39,-5.03 z" id="path98" style="fill:#ffffff" ns1:connector-curvature="0" />
      <path d="m 871.29,150.51 c -0.09,-4.15 0.76,-8.23 2.3,-12.05 -0.18,4.11 -0.96,8.16 -2.3,12.05 z" id="path100" style="fill:#ffffff" ns1:connector-curvature="0" />
      <path d="m 886.88,143.77 c 4.68,-2.58 10.79,-3.78 15.79,-1.44 5.95,3.24 11.28,9.41 10.37,16.67 0.37,11.84 -7.96,21 -12.7,31.15 -10.43,-8.12 -22.1,-14.9 -34.48,-19.53 5.44,-9.92 10.24,-21.61 21.02,-26.85 z" id="path102" style="fill:#231f20" ns1:connector-curvature="0" />
      <path d="m 1078.38,145.69 c 3.48,2.14 6.61,4.92 8.15,8.82 -3.45,-2.2 -6.55,-4.99 -8.15,-8.82 z" id="path104" style="fill:#ffffff" ns1:connector-curvature="0" />
      <path d="m 864.26,161.75 c -0.27,-5.36 1.14,-10.58 3.51,-15.33 0.89,5.41 0.06,11.07 -3.51,15.33 z" id="path106" style="fill:#ffffff" ns1:connector-curvature="0" />
      <path d="m 305.18,147.9 c 6.38,9.03 12.87,18.01 20.17,26.33 -1.09,1.64 -2.24,3.23 -3.43,4.78 -1.07,-0.88 -2.13,-1.76 -3.19,-2.64 -1.14,3.63 -1.28,8.26 -4.46,10.91 -2.79,3.5 -8.25,2.39 -10.89,-0.64 -5.69,-6.75 -10.52,-14.15 -15.49,-21.43 1.3,-1.11 3.89,-3.33 5.18,-4.44 5.27,7.64 10.72,15.19 17.07,21.97 1.03,-2.14 2.42,-4.23 2.66,-6.65 -0.81,-8.98 -7.59,-15.62 -12,-22.98 1.09,-1.31 3.28,-3.91 4.38,-5.21 z" id="path108" style="fill:#231f20" ns1:connector-curvature="0" />
      <path d="m 964.78,152.35 c 0.94,-1.12 3.12,-0.52 3.45,0.89 -0.24,2.06 -4.31,1.06 -3.45,-0.89 z" id="path110" style="fill:#ffffff" ns1:connector-curvature="0" />
      <path d="m 959.09,153.57 c 1.95,0.46 0.22,3.96 -1.4,2.95 -0.93,-1.02 0.09,-2.9 1.4,-2.95 z" id="path112" style="fill:#ffffff" ns1:connector-curvature="0" />
      <path d="m 880.34,160.5 c 3.11,-7.36 14.23,-7.74 18.93,-1.78 3.69,3.53 2.55,9.22 1.29,13.64 -6.93,-3.62 -13.63,-7.66 -20.22,-11.86 z" id="path114" style="fill:#ffffff" ns1:connector-curvature="0" />
      <path d="m 970.2,157.94 c 1.9,-0.68 2.33,2.98 0.51,3.26 -1.45,-0.21 -1.5,-2.48 -0.51,-3.26 z" id="path116" style="fill:#ffffff" ns1:connector-curvature="0" />
      <path d="m 1084.27,157.03 c 2.83,2.29 5.93,4.61 7.25,8.17 -2.63,-2.55 -5.25,-5.11 -7.25,-8.17 z" id="path118" style="fill:#ffffff" ns1:connector-curvature="0" />
      <path d="m 859.62,172.58 c -2.1,-4.55 -0.46,-9.39 1.72,-13.58 -0.21,4.57 -0.84,9.1 -1.72,13.58 z" id="path120" style="fill:#ffffff" ns1:connector-curvature="0" />
      <path d="m 967.31,167.62 c 3.77,-1.83 7.31,-4.14 10.25,-7.15 0.77,3.57 1.93,7.06 3.31,10.44 -3.65,-3.7 -9.51,-4.46 -13.19,-0.42 -0.14,-0.96 -0.26,-1.92 -0.37,-2.87 z" id="path122" style="fill:#ffffff" ns1:connector-curvature="0" />
      <path d="m 981.17,162.8 c 1.41,-0.45 1.92,1.94 0.66,2.4 -1.43,0.45 -1.95,-1.95 -0.66,-2.4 z" id="path124" style="fill:#ffffff" ns1:connector-curvature="0" />
      <path d="m 265.97,165.61 c 2.62,-0.5 5.19,-1.02 7.85,-1.41 2.24,1.91 3.92,5.63 1.49,8.07 -1.43,2.49 -4.97,2.1 -6.85,0.38 -1.09,-2.25 -1.92,-4.6 -2.49,-7.04 z" id="path126" style="fill:#231f20" ns1:connector-curvature="0" />
      <path d="m 1088.56,166.33 c 4.42,2.01 6.12,6.68 7.72,10.93 -3.26,-3.1 -6.62,-6.41 -7.72,-10.93 z" id="path128" style="fill:#ffffff" ns1:connector-curvature="0" />
      <path d="m 854.69,184.01 c -0.67,-4.54 -0.49,-9.16 0.74,-13.57 1.4,4.54 1.36,9.31 -0.74,13.57 z" id="path130" style="fill:#ffffff" ns1:connector-curvature="0" />
      <path d="m 972.21,181.54 c 0.62,-3.33 1.34,-6.64 2.22,-9.91 0.71,3.42 1.25,6.85 1.9,10.29 16.87,0.11 33.76,0.08 50.65,0.1 -0.2,23.31 0.52,46.65 -0.23,69.96 -0.1,11.1 -7.05,20.54 -12.83,29.47 -2.1,-2.54 -4.12,-5.16 -5.78,-8.02 3.94,0.76 8.82,1.86 11.27,-2.34 -5.47,-1.04 -11.35,-0.5 -16.4,-3.09 -2.81,-1.95 -3.19,-5.55 -4.62,-8.4 -3.33,-6.04 -8.36,-11.05 -10.95,-17.51 3.92,2.84 7.12,7.17 11.98,8.5 4.92,1.48 9.23,-1.37 13.56,-3.07 -2.03,-1.02 -4.05,-2.04 -6.07,-3.04 2.84,-0.61 5.98,-1.19 8.86,-1.94 -2.77,-2.46 -5.93,-4.4 -8.94,-6.53 2.99,0.91 5.96,1.93 8.93,2.94 0.85,-4.83 4.93,-8.13 7.19,-12.31 -1.61,0.09 -3.22,0.19 -4.81,0.31 1.47,-1.46 3.05,-2.83 4.27,-4.52 -0.52,-2.16 -0.47,-4.16 -1.04,-6.23 1.43,-1.95 2.82,-3.93 4.17,-5.95 -4.26,0.11 -8.51,0.3 -12.75,0.48 3.45,-0.85 6.97,-1.67 10.44,-2.55 -1.22,-3.23 -0.04,-6.57 0.67,-9.77 -8.53,1.42 -17.24,1.08 -25.8,1.9 -4.36,0.03 -7.02,7.15 -2.92,9.37 1.27,0.97 2.64,1.78 4.03,2.64 0.12,5.56 -4.51,8.18 -9.16,9.31 -5.29,-8.46 -6.97,-19.25 -3.29,-28.67 -5.41,-1.36 -10.71,-3.56 -16.38,-3.47 -4.28,1.45 -6.74,6.06 -11.51,6.48 -3.55,0.11 -6.54,-2.14 -9.65,-3.52 1.86,2.12 3.02,5.31 6.04,6 4.17,0.33 8.33,0.01 12.51,-0.18 1.47,8.87 -0.01,17.66 -3.12,26.05 -5.16,-1.24 -11.45,-3.08 -13.29,-8.7 -3.29,-5.84 3.06,-6.96 6.36,-9.24 -1.82,-1.12 -0.54,-5.5 -3.37,-5.65 -8.73,-0.86 -17.52,-0.21 -26.23,-1.31 2.15,3.95 6,6.29 10,8.04 -3.94,-0.77 -7.71,-1.94 -11.46,-3.29 0.28,3.28 0.73,6.59 1.17,9.86 4.15,0.77 8.33,1.58 12.54,2.15 -4.47,0.34 -8.91,0.51 -13.37,0.36 0.22,4.57 1.38,9.41 5.11,12.42 -0.78,0.57 -1.58,1.13 -2.32,1.72 2.48,1.87 5.12,3.51 7.85,5 -1.73,0.68 -3.43,1.38 -5.12,2.12 5.06,-0.48 9.92,-1.97 14.79,-3.34 -3.44,2.26 -7.05,4.25 -10.67,6.2 2.19,1.41 4.45,2.72 6.78,3.9 -0.96,0.8 -1.91,1.6 -2.84,2.42 3.91,1.19 7.75,2.99 11.98,2.67 3.91,-2.5 7.12,-5.94 10.69,-8.89 -4.51,9.02 -9.5,17.9 -15.48,26.03 -3.25,4.09 -9.36,2.16 -13.7,2.77 -2.61,0.06 -1.72,3.47 -2.24,5.19 3.37,-0.5 6.85,-1 10.23,-1.62 -1.68,2.81 -3.36,5.62 -4.72,8.6 1.67,0.76 3.37,1.52 5.06,2.27 1.22,-2.64 2.51,-5.24 3.82,-7.85 2.28,1.98 4.44,4.21 6.98,5.91 1.88,-0.9 3.45,-2.31 5.03,-3.65 -3.05,-1.39 -5.9,-3.22 -8.3,-5.56 3.78,-0.56 7.56,0.16 11.23,1.05 0.38,-1.5 0.73,-3 1.09,-4.5 -1.91,-0.31 -5.71,-0.92 -7.61,-1.23 4.82,-5.5 9.28,-11.31 12.99,-17.62 3.01,7.59 5.34,15.8 3.92,24.02 -0.42,2.74 -1.61,5.52 -3.87,7.24 -3.54,1.3 -5.1,-2.97 -7.08,-5.02 -1.01,3.27 -3.82,7.44 -0.85,10.46 2.99,2.71 7.19,0.66 10.63,0.14 1.65,2.08 3.3,4.17 5.09,6.14 1.05,-1.69 2.1,-3.38 3.12,-5.09 3.34,0.53 7.4,2.19 10.22,-0.59 4.24,-3.04 1.39,-8.89 -0.79,-12.4 -0.8,2.08 -1.56,4.18 -2.32,6.28 -1.69,0.5 -3.38,1.01 -5.04,1.54 -5.05,-9.97 -2.75,-22.09 1.84,-31.8 2.07,2.7 3.63,5.76 5.48,8.63 2.13,3.48 6.01,5.29 8.84,8.14 -3,0.32 -5.98,0.65 -8.94,0.97 0.16,1.4 0.34,2.8 0.54,4.2 3.9,0.14 7.78,0.31 11.72,0.53 -2.98,1.89 -6.1,3.55 -9.01,5.53 4.79,4.1 9.99,0.18 14.29,-2.52 1.06,3.1 2.24,6.16 3.58,9.14 -6.47,4.01 -12.81,8.86 -20.41,10.43 -11.3,2.57 -23.64,3.09 -34.47,-1.6 -20.78,-8.23 -33.95,-30.92 -33.18,-52.89 -0.08,-19.65 0.1,-39.29 0.08,-58.93 17.07,0.01 34.13,-0.85 51.19,-1.56 z" id="path132" style="fill:#ffffff" ns1:connector-curvature="0" />
      <path d="m 266.44,189.78 c 3.21,-6.12 6.66,-13.12 14.47,-13.89 7.3,8.24 14.33,16.8 19.93,26.31 3.05,5.5 3.88,12.95 -0.84,17.8 -2.11,4.16 -6.82,5.08 -10.8,6.44 -0.45,-2.19 -0.85,-4.39 -1.13,-6.61 4.8,-1.36 11.31,-4.75 8.16,-11.1 -4.43,-8.98 -11.02,-16.92 -17.53,-24.46 -4.4,0.56 -5.6,6.74 -8.36,9.83 -1.3,-1.45 -2.6,-2.88 -3.9,-4.32 z" id="path134" style="fill:#231f20" ns1:connector-curvature="0" />
      <path d="m 1093.38,178.82 c 3.02,2.58 5.85,5.56 6.88,9.52 -2.69,-2.89 -5.31,-5.88 -6.88,-9.52 z" id="path136" style="fill:#ffffff" ns1:connector-curvature="0" />
      <path d="m 852.55,195.86 c -2.99,-4.26 -3.06,-9.89 -0.86,-14.5 0.6,4.81 0.66,9.65 0.86,14.5 z" id="path138" style="fill:#ffffff" ns1:connector-curvature="0" />
      <path d="m 780.03125,98.1875 c -0.20105,0.01703 -0.39366,0.07153 -0.59375,0.15625 -1.51803,0.413257 -2.29715,2.01865 -2.625,3.4375 -0.0331,2.63658 1.57107,5.39688 4.125,6.28125 2.41067,0.5455 3.50842,-2.08855 4.78125,-3.5625 -0.38846,-0.39397 -0.79904,-0.76779 -1.1875,-1.15625 -0.69152,0.9009 -1.38035,1.79195 -2.28125,2.5 -0.68876,0.60336 -1.49874,-0.17483 -2.1875,-0.40625 1.0111,-1.42987 2.30274,-2.81856 2.71875,-4.5625 0.0217,-1.383722 -1.34262,-2.806677 -2.75,-2.6875 z m -0.25,1.90625 c 0.57701,-0.0554 1.20352,0.44907 1.125,1.09375 -0.1653,1.14334 -1.14586,1.93632 -1.90625,2.71875 -0.37469,-1.13508 -0.90987,-2.68915 0.25,-3.5625 0.16117,-0.15635 0.33891,-0.23153 0.53125,-0.25 z" id="path140" style="fill:#231f20" transform="matrix(3.6297031,0,0,3.6297031,-2630.4388,-172.28647)" ns1:connector-curvature="0" />
      <path d="m 818.875,97.90625 -30.65625,30.65625 106.5,0 30.65625,-30.65625 -106.5,0 z m 17.84375,2.6875 c 2.39267,-0.002 4.76325,0.16418 7,1.125 2.53189,0.94774 3.77865,3.71536 3.96875,6.25 0.39122,4.52379 -0.47457,9.33225 -3.03125,13.15625 -1.84313,3.04984 -5.29887,4.87807 -8.78125,5.25 -2.72199,0.22867 -5.46276,0.16727 -8.1875,0.15625 1.59242,-8.63156 4.75,-25.90625 4.75,-25.90625 0,0 2.84565,-0.0302 4.28125,-0.0312 z m 31.8125,0.0312 -3.375,25.90625 -3.8125,0 2.71875,-19.625 -5.59375,11.84375 -2.875,0.0625 -0.96875,-12.5 -4.09375,20.1875 -3.71875,0.0312 5.78125,-25.875 4.59375,0 1.15625,11.125 5,-11.125 5.1875,-0.0312 z m 5.1875,0.0312 12.71875,0 c 0,0 -2.08454,11.88089 -3.15625,17.8125 -0.49315,3.01402 -1.96748,6.14822 -4.84375,7.53125 -1.41609,0.82651 -3.10059,0.82352 -4.6875,0.8125 -2.06353,0.23969 -3.72378,-1.16262 -5.34375,-2.1875 0.72458,-1.16538 1.47213,-2.31714 2.21875,-3.46875 1.53181,0.87059 3.40317,2.33565 5.21875,1.4375 1.64752,-0.63366 2.61791,-2.30195 2.9375,-3.96875 0.88712,-4.60093 2.4375,-13.84375 2.4375,-13.84375 l -8.28125,0 0.78125,-4.125 z M 835.875,104.8125 c -1.02488,5.89029 -2.03676,11.77974 -3.125,17.65625 1.30589,-0.0551 2.60311,-0.0847 3.90625,-0.25 2.33077,-0.58407 4.09359,-2.49078 5,-4.65625 1.10202,-2.62556 1.65609,-5.49779 1.46875,-8.34375 -0.22591,-1.09375 -0.22969,-2.45741 -1.21875,-3.1875 -1.55109,-1.5814 -4.04762,-1.05345 -6.03125,-1.21875 z" id="path142" style="fill:#ed1c24" transform="matrix(3.6297031,0,0,3.6297031,-2630.4388,-172.28647)" ns1:connector-curvature="0" />
      <path d="m 1096.76,190.18 c 3.14,2.03 4.57,5.52 4.87,9.13 -2.6,-2.43 -4.28,-5.63 -4.87,-9.13 z" id="path146" style="fill:#ffffff" ns1:connector-curvature="0" />
      <path d="m 848.22,193.37 c 2.06,3.84 2.26,8.21 2.56,12.48 -2.8,-3.53 -3.61,-8.14 -2.56,-12.48 z" id="path154" style="fill:#ffffff" ns1:connector-curvature="0" />
      <path d="m 973.32,194.18 c 0.99,-1.48 3.51,0.17 2.36,1.64 -1.01,1.48 -3.54,-0.18 -2.36,-1.64 z" id="path156" style="fill:#ffffff" ns1:connector-curvature="0" />
      <path d="m 244.16,194.7 c 2.32,2.8 4.57,5.65 6.85,8.49 2.71,-2.55 5.43,-5.09 8.15,-7.62 1.38,1.59 2.68,3.27 3.87,5.02 -2.8,2.74 -5.57,5.52 -8.31,8.32 3.73,5.05 7.13,10.44 11.62,14.86 4.37,1.32 6.41,-3.99 8.71,-6.68 1.09,1.29 3.26,3.87 4.35,5.16 -3.12,3.17 -5.42,7.74 -9.82,9.38 -3.92,1.79 -7.26,-0.94 -9.6,-3.6 -3.6,-4.4 -6.81,-9.07 -10.04,-13.73 -2.19,1.63 -4.35,3.28 -6.55,4.89 -0.87,-1.71 -1.76,-3.41 -2.64,-5.11 1.65,-1.78 3.31,-3.56 4.98,-5.33 -1.37,-2.3 -3.07,-4.46 -3.9,-7.03 0.27,-2.47 1.48,-4.71 2.33,-7.02 z" id="path158" style="fill:#231f20" ns1:connector-curvature="0" />
      <path d="m 967.81,196.2 c 1.17,-1.14 3.12,0.81 1.99,1.99 -1.11,0.97 -2.98,-0.89 -1.99,-1.99 z" id="path160" style="fill:#ffffff" ns1:connector-curvature="0" />
      <path d="m 1098.85,201.43 c 3.14,2.62 4.92,6.37 5.26,10.43 -3.37,-2.46 -4.76,-6.45 -5.26,-10.43 z" id="path162" style="fill:#ffffff" ns1:connector-curvature="0" />
      <path d="m 159.83,206 c 3.02,4.48 6.1,8.95 8.61,13.76 1.16,-4.09 2.08,-9.05 5.96,-11.54 2.86,-0.55 6.55,-0.7 8.76,1.6 5.92,6.86 10.72,14.59 15.9,22 -1.31,1.12 -3.92,3.36 -5.23,4.48 -6.26,-7 -9.15,-18.19 -19.01,-21.15 -1.81,11.34 5.87,20.57 11.71,29.39 -1.28,1.05 -3.83,3.16 -5.11,4.21 -8.73,-12.92 -18.34,-25.23 -26.78,-38.35 1.3,-1.1 3.89,-3.3 5.19,-4.4 z" id="path164" style="fill:#231f20" ns1:connector-curvature="0" />
      <path d="m 846.13,206.04 c 4.23,3.03 3.31,8.24 2.6,12.73 -2.21,-3.88 -2.36,-8.39 -2.6,-12.73 z" id="path166" style="fill:#ffffff" ns1:connector-curvature="0" />
      <path d="m 1014.53,207.12 c 1.41,-2.18 3.16,1.9 0.57,1.29 -0.14,-0.32 -0.43,-0.97 -0.57,-1.29 z" id="path168" style="fill:#ffffff" ns1:connector-curvature="0" />
      <path d="m 1101.32,212.52 c 1.32,3.25 1.96,6.68 2.11,10.2 -1.25,-3.26 -1.75,-6.76 -2.11,-10.2 z" id="path172" style="fill:#ffffff" ns1:connector-curvature="0" />
      <path d="m 845.55,217.22 c 2.39,4.47 1.67,9.68 1.9,14.56 -2.38,-4.47 -1.74,-9.7 -1.9,-14.56 z" id="path174" style="fill:#ffffff" ns1:connector-curvature="0" />
      <path d="m 933.8,219.17 c 0.44,-1.27 2.84,-0.76 2.4,0.66 -0.47,1.27 -2.86,0.76 -2.4,-0.66 z" id="path176" style="fill:#ffffff" ns1:connector-curvature="0" />
      <path d="m 1016.01,219.22 c 0.55,-1.07 2.4,-1.07 2.98,0 0.35,1.81 -3.35,1.81 -2.98,0 z" id="path178" style="fill:#ffffff" ns1:connector-curvature="0" />
      <path d="m 789.5625,108.6875 c -0.18241,0.003 -0.36827,0.0417 -0.5625,0.0937 -2.81841,0.69152 -3.6487,4.38247 -2.3125,6.71875 1.02763,1.64476 2.73811,3.88445 5,3.09375 3.14626,-1.3114 3.10304,-5.73811 1.03125,-8 -0.85579,-0.84614 -1.87939,-1.92651 -3.15625,-1.90625 z m -0.21875,2.15625 c 0.84253,-0.0688 1.65278,0.68314 2.03125,1.375 0.84855,1.04692 1.60926,2.86303 0.375,3.9375 -0.8761,1.04692 -2.40845,0.0773 -2.84375,-0.90625 -0.89264,-1.17916 -1.50418,-3.4952 0.0937,-4.34375 0.12157,-0.0461 0.22339,-0.0527 0.34375,-0.0625 z" id="path180" style="fill:#231f20" transform="matrix(3.6297031,0,0,3.6297031,-2630.4388,-172.28647)" ns1:connector-curvature="0" />
      <path d="m 1101.89,223.3 c 2.06,2.47 3.44,5.4 4.27,8.5 -2.91,-1.91 -4.19,-5.12 -4.27,-8.5 z" id="path182" style="fill:#ffffff" ns1:connector-curvature="0" />
      <path d="m 1012.53,228.12 c 1.41,-2.18 3.16,1.9 0.57,1.29 -0.14,-0.32 -0.43,-0.97 -0.57,-1.29 z" id="path184" style="fill:#ffffff" ns1:connector-curvature="0" />
      <path d="m 144.07,246.91 c -0.37,-7.85 4.48,-15.82 12.3,-17.97 1.11,1.22 3.33,3.67 4.44,4.89 -3.93,2.89 -9.83,5.52 -9.7,11.16 0.66,6.69 5.26,13.15 12.4,13.83 2.4,-3.33 4.8,-6.68 7.21,-10.01 1.15,1.34 3.45,4.02 4.61,5.36 -3.93,5.76 -8.85,13.53 -17.14,11.78 -8.27,-2.38 -12.91,-11.05 -14.12,-19.04 z" id="path186" style="fill:#231f20" ns1:connector-curvature="0" />
      <path d="m 844.32,230.4 c 1.56,4.31 2.9,8.73 3.79,13.25 -3.81,-3.37 -4.01,-8.49 -3.79,-13.25 z" id="path190" style="fill:#ffffff" ns1:connector-curvature="0" />
      <path d="m 1101.64,232.82 c 1.15,0.8 2.3,1.62 3.47,2.43 -0.26,3.13 -0.32,6.31 -0.7,9.44 -1.56,-3.78 -2.06,-7.88 -2.77,-11.87 z" id="path192-2" style="fill:#ffffff" ns1:connector-curvature="0" />
      <path d="m 946.13,241.95 c 3.34,-0.53 0.02,4.27 -0.82,1.13 0.21,-0.28 0.61,-0.85 0.82,-1.13 z" id="path194-2" style="fill:#ffffff" ns1:connector-curvature="0" />
      <path d="m 844.17,242.34 c 3.42,4.71 4.06,10.6 4.67,16.23 -3.94,-4.55 -5.09,-10.36 -4.67,-16.23 z" id="path196" style="fill:#ffffff" ns1:connector-curvature="0" />
      <path d="m 783.25,115.3125 c -0.18241,0.003 -0.36827,0.0105 -0.5625,0.0625 -2.81841,0.69152 -3.67995,4.41372 -2.34375,6.75 1.02763,1.64476 2.73811,3.88445 5,3.09375 3.14626,-1.31416 3.10304,-5.73811 1.03125,-8 -0.85579,-0.84614 -1.84814,-1.92651 -3.125,-1.90625 z m -0.21875,2.125 c 0.84253,-0.0688 1.62153,0.68314 2,1.375 0.84855,1.04692 1.60926,2.89428 0.375,3.96875 -0.8761,1.04692 -2.40845,0.046 -2.84375,-0.9375 -0.89264,-1.17916 -1.50418,-3.46395 0.0937,-4.3125 0.12157,-0.0461 0.25464,-0.0839 0.375,-0.0937 z" id="path198" style="fill:#231f20" transform="matrix(3.6297031,0,0,3.6297031,-2630.4388,-172.28647)" ns1:connector-curvature="0" />
      <path d="m 1102.67,245.99 c 2.19,4.25 3.13,9.45 0.69,13.8 -0.58,-4.57 -0.65,-9.21 -0.69,-13.8 z" id="path200" style="fill:#ffffff" ns1:connector-curvature="0" />
      <path d="m 131.15,253.04 c 1.24,1.03 3.71,3.09 4.95,4.12 -4.52,3.76 -11.05,7.26 -9.95,14.11 5.81,-1.02 11.58,-3.33 17.55,-2.96 5.15,1.8 7.76,8.78 5.28,13.64 -2.77,5.57 -8.09,9.25 -12.7,13.22 -1.11,-1.28 -3.33,-3.85 -4.44,-5.14 3.9,-2.69 8.49,-5.04 10.73,-9.43 0.57,-1.99 -0.66,-3.99 -1.07,-5.92 -4.9,1.74 -9.74,4.15 -15.1,3.81 -5.51,-0.74 -8.63,-7.52 -6.37,-12.38 1.98,-5.6 6.83,-9.27 11.12,-13.07 z" id="path202" style="fill:#231f20" ns1:connector-curvature="0" />
      <path d="m 843.96,257.53 c 3.7,2.95 5.49,7.31 4.77,12.16 -2.32,-3.72 -3.44,-8.04 -4.77,-12.16 z" id="path206" style="fill:#ffffff" ns1:connector-curvature="0" />
      <path d="m 1099.64,262.22 c 0.7,-0.36 2.09,-1.09 2.79,-1.46 0.74,4.57 0.93,9.17 0.2,13.76 -1.57,-3.94 -2.31,-8.14 -2.99,-12.3 z" id="path208" style="fill:#ffffff" ns1:connector-curvature="0" />
      <path d="m 771.75,121.3125 c -0.35816,0.30581 -1.04809,0.88444 -1.40625,1.1875 2.31148,3.56503 4.87798,6.97992 7.34375,10.4375 1.25355,-1.00559 2.78644,-1.83398 3.5,-3.34375 1.25355,-3.63115 -1.78903,-7.89444 -5.59375,-8.0625 -0.56203,1.14885 -1.17396,2.3062 -1.46875,3.5625 -0.6805,-1.32242 -1.54573,-2.54974 -2.375,-3.78125 z m 4.6875,2.28125 c 1.50701,1.13232 3.1775,2.5403 3.3125,4.5625 -0.21765,0.94774 -0.99032,1.64405 -1.5,2.4375 -1.36099,-1.93129 -3.50685,-4.63617 -1.8125,-7 z" id="path210" style="fill:#231f20" transform="matrix(3.6297031,0,0,3.6297031,-2630.4388,-172.28647)" ns1:connector-curvature="0" />
      <path d="m 846.13,269.29 c 3.04,3.41 4.71,7.78 5.04,12.32 -3.69,-2.98 -5.45,-7.53 -5.04,-12.32 z" id="path212" style="fill:#ffffff" ns1:connector-curvature="0" />
      <path d="m 1009.13,292.36 c 6.69,-5.95 12.35,-12.85 16.99,-20.51 -1.08,7.48 -2.75,15.02 -6.76,21.53 -1.26,2.42 -5.04,1.89 -6.83,3.24 -1.14,-1.43 -2.27,-2.85 -3.4,-4.26 z" id="path214" style="fill:#ffffff" ns1:connector-curvature="0" />
      <path d="m 95.16,274.7 c 2.32,2.8 4.57,5.65 6.85,8.49 2.71,-2.55 5.43,-5.09 8.15,-7.62 1.39,1.59 2.68,3.27 3.87,5.02 -2.8,2.74 -5.57,5.52 -8.31,8.32 3.73,5.04 7.13,10.43 11.62,14.86 4.38,1.32 6.41,-3.99 8.71,-6.68 1.09,1.29 3.26,3.87 4.35,5.16 -3.11,3.17 -5.42,7.74 -9.82,9.38 -3.92,1.79 -7.26,-0.94 -9.6,-3.6 -3.59,-4.4 -6.81,-9.07 -10.04,-13.73 -2.19,1.62 -4.35,3.28 -6.55,4.89 -0.87,-1.71 -1.76,-3.41 -2.64,-5.11 1.65,-1.79 3.31,-3.56 4.98,-5.33 -1.37,-2.3 -3.07,-4.46 -3.9,-7.03 0.27,-2.47 1.48,-4.71 2.33,-7.02 z" id="path216" style="fill:#231f20" ns1:connector-curvature="0" />
      <path d="m 924.67,275.93 c 4.64,5.95 9.55,11.67 14.6,17.29 -2.3,0.76 -5.05,1.35 -7.21,2.12 -3.28,-6.13 -6.3,-12.49 -7.39,-19.41 z" id="path218" style="fill:#ffffff" ns1:connector-curvature="0" />
      <path d="m 1097.64,288.65 c 0.57,-4.43 1.05,-8.87 2.02,-13.23 0.71,4.89 1.15,9.86 0.62,14.79 -0.66,-0.39 -1.98,-1.17 -2.64,-1.56 z" id="path220" style="fill:#ffffff" ns1:connector-curvature="0" />
      <path d="m 847.12,281.25 c 2.38,3.23 4.46,6.71 5.92,10.47 -3.71,-2.26 -5.49,-6.29 -5.92,-10.47 z" id="path224" style="fill:#ffffff" ns1:connector-curvature="0" />
      <path d="m 164.43,292.41 c 5.42,-2.53 8.35,3.45 12.11,6.08 -1.32,1.05 -3.95,3.14 -5.27,4.19 -2.46,-1.22 -4.98,-2.3 -7.55,-3.25 -2.05,11.35 6.03,20.38 11.8,29.1 -1.31,1.09 -3.93,3.27 -5.23,4.36 -6.28,-9.26 -13.26,-17.99 -20.27,-26.69 1.31,-1.12 2.62,-2.25 3.93,-3.38 1.14,0.98 2.29,1.96 3.43,2.95 0.27,-4.95 1.19,-11.98 7.05,-13.36 z" id="path226" style="fill:#231f20" ns1:connector-curvature="0" />
      <path d="m 849.13,291.45 c 2.37,3.09 4.58,6.38 6.06,10.01 -2.83,-2.78 -4.57,-6.4 -6.06,-10.01 z" id="path228" style="fill:#ffffff" ns1:connector-curvature="0" />
      <path d="m 1095.67,292.52 c 0.33,3.01 0.81,6.01 1.35,9.01 -0.73,0.01 -2.18,0.04 -2.91,0.05 0.59,-3.01 0.98,-6.06 1.56,-9.06 z" id="path230" style="fill:#ffffff" ns1:connector-curvature="0" />
      <path d="m 87.18,297.9 c 6.38,9.03 12.87,18.01 20.17,26.33 -1.09,1.63 -2.24,3.22 -3.43,4.78 -1.07,-0.88 -2.13,-1.76 -3.19,-2.64 -1.14,3.63 -1.28,8.26 -4.46,10.91 -2.79,3.5 -8.24,2.39 -10.89,-0.64 -5.69,-6.75 -10.51,-14.16 -15.49,-21.43 1.3,-1.11 3.89,-3.33 5.18,-4.44 5.27,7.64 10.72,15.18 17.07,21.97 1.03,-2.14 2.43,-4.23 2.66,-6.65 -0.81,-8.98 -7.59,-15.62 -12,-22.98 1.09,-1.31 3.28,-3.91 4.38,-5.21 z" id="path232" style="fill:#231f20" ns1:connector-curvature="0" />
      <path d="m 995.24,299.88 c 2.97,1.48 5.1,4.21 7.44,6.51 -5.08,5.62 -12.36,8.42 -19.58,10.07 -0.11,-4.52 -0.12,-9.01 -0.12,-13.52 4.04,-1.09 8.05,-2.67 12.26,-3.06 z" id="path234" style="fill:#ffffff" ns1:connector-curvature="0" />
      <path d="m 951.86,299.71 c 4.37,1.19 8.75,2.31 13.17,3.41 -0.1,4.3 -0.11,8.63 -0.36,12.95 -6.89,0.45 -12.72,-3.27 -18.47,-6.43 1.73,-3.38 3.68,-6.67 5.66,-9.93 z" id="path236" style="fill:#ffffff" ns1:connector-curvature="0" />
      <path d="m 851.86,301.33 c 3.39,3.6 7,7.33 8.38,12.23 -4.22,-2.94 -8,-6.86 -8.38,-12.23 z" id="path238" style="fill:#ffffff" ns1:connector-curvature="0" />
      <path d="m 1091.49,303.25 c 1.2,4.51 1.23,9.13 -1.07,13.3 0.02,-4.47 0.46,-8.9 1.07,-13.3 z" id="path240" style="fill:#ffffff" ns1:connector-curvature="0" />
      <path d="m 857.34,314.7 c 3.3,2.68 6.68,5.6 8.01,9.81 -3.58,-2.43 -7.1,-5.37 -8.01,-9.81 z" id="path242" style="fill:#ffffff" ns1:connector-curvature="0" />
      <path d="m 1084.11,326.67 c 0.22,-3.87 1.15,-7.67 2.58,-11.27 0.69,4.03 -0.21,8.03 -2.58,11.27 z" id="path244" style="fill:#ffffff" ns1:connector-curvature="0" />
      <path d="m 764.21875,134.875 c -0.18241,0.003 -0.36827,0.0105 -0.5625,0.0625 -2.81841,0.69152 -3.6487,4.41372 -2.3125,6.75 1.02763,1.64476 2.73811,3.88445 5,3.09375 3.14626,-1.31416 3.07179,-5.73811 1,-8 -0.85579,-0.84614 -1.84814,-1.92651 -3.125,-1.90625 z M 764,137 c 0.84253,-0.0688 1.62153,0.68314 2,1.375 0.84855,1.04692 1.64051,2.89428 0.40625,3.96875 -0.8761,1.04692 -2.40845,0.0461 -2.84375,-0.9375 -0.89264,-1.17916 -1.50418,-3.46395 0.0937,-4.3125 0.12157,-0.0462 0.22339,-0.0839 0.34375,-0.0937 z" id="path246" style="fill:#231f20" transform="matrix(3.6297031,0,0,3.6297031,-2630.4388,-172.28647)" ns1:connector-curvature="0" />
      <path d="m 202.62261,322.2982 386.60686,0 -112.72233,112.72233 -386.606867,0 z" id="path248" style="fill:#fff200" ns1:connector-curvature="0" />
      <path d="m 742.03125,137.3125 c -0.20105,0.017 -0.42491,0.0715 -0.625,0.15625 -1.51803,0.41326 -2.29439,2.01865 -2.625,3.4375 -0.0331,2.63658 1.57107,5.39688 4.125,6.28125 2.41067,0.5455 3.50842,-2.08855 4.78125,-3.5625 -0.38846,-0.39397 -0.76779,-0.76779 -1.15625,-1.15625 -0.69152,0.9009 -1.4116,1.79195 -2.3125,2.5 -0.68876,0.60336 -1.49874,-0.17483 -2.1875,-0.40625 1.0111,-1.42987 2.30274,-2.81856 2.71875,-4.5625 0.0217,-1.38372 -1.31137,-2.80668 -2.71875,-2.6875 z m -0.25,1.90625 c 0.57766,-0.0554 1.17434,0.44907 1.09375,1.09375 -0.1653,1.14334 -1.14586,1.93632 -1.90625,2.71875 -0.37469,-1.13508 -0.90987,-2.68915 0.25,-3.5625 0.16117,-0.15635 0.36995,-0.23153 0.5625,-0.25 z" id="path252" style="fill:#231f20" transform="matrix(3.6297031,0,0,3.6297031,-2630.4388,-172.28647)" ns1:connector-curvature="0" />
      <path d="m 862.61,325.53 c 3.99,2.85 7.62,6.36 9.52,10.96 -4.01,-2.9 -8.81,-5.62 -9.52,-10.96 z" id="path254" style="fill:#ffffff" ns1:connector-curvature="0" />
      <path d="m 1078.39,337.77 c -0.31,-4 0.51,-7.93 2.13,-11.54 0.72,4.04 -0.08,8.08 -2.13,11.54 z" id="path256" style="fill:#ffffff" ns1:connector-curvature="0" />
      <path d="m 106.16,335.7 c 2.32,2.8 4.57,5.65 6.85,8.49 2.71,-2.55 5.43,-5.09 8.15,-7.62 1.39,1.59 2.68,3.27 3.87,5.02 -2.8,2.74 -5.57,5.52 -8.31,8.32 3.73,5.04 7.13,10.43 11.62,14.86 4.38,1.32 6.41,-3.99 8.71,-6.68 1.09,1.29 3.26,3.87 4.35,5.16 -3.11,3.17 -5.42,7.74 -9.82,9.38 -3.92,1.79 -7.26,-0.94 -9.6,-3.6 -3.59,-4.4 -6.81,-9.07 -10.04,-13.73 -2.19,1.62 -4.35,3.28 -6.55,4.89 -0.87,-1.71 -1.76,-3.41 -2.64,-5.11 1.65,-1.79 3.31,-3.56 4.98,-5.33 -1.37,-2.3 -3.07,-4.46 -3.9,-7.03 0.27,-2.47 1.48,-4.72 2.33,-7.02 z" id="path260" style="fill:#231f20" ns1:connector-curvature="0" />
      <path d="m 868.72,337.53 c 4.01,2.35 7.89,5.13 10.65,8.94 -4.78,-1.22 -8.26,-4.78 -10.65,-8.94 z" id="path262" style="fill:#ffffff" ns1:connector-curvature="0" />
      <path d="m 1070.83,347.6 c 0.39,-3.47 2,-6.59 4.37,-9.12 -0.77,3.33 -2.24,6.45 -4.37,9.12 z" id="path264" style="fill:#ffffff" ns1:connector-curvature="0" />
      <path d="m 734.4375,141.875 c -2.12662,0.0549 -3.43101,2.30146 -4.875,3.65625 2.14343,3.31432 4.57265,6.43655 6.8125,9.6875 1.4216,-1.42436 3.11264,-2.74984 3.71875,-4.75 0.66121,-3.50166 -1.73409,-6.89011 -4.6875,-8.46875 -0.34025,-0.0902 -0.66495,-0.13285 -0.96875,-0.125 z m 0.15625,2.3125 c 0.33289,0.0223 0.66225,0.12498 0.96875,0.375 1.59517,1.34446 3.02078,3.44851 2.59375,5.625 -0.33061,0.80447 -0.88185,1.47394 -1.375,2.1875 -1.65854,-2.31424 -3.27259,-4.6416 -5,-6.90625 0.76039,-0.56203 1.81384,-1.34802 2.8125,-1.28125 z" id="path266" style="fill:#231f20" transform="matrix(3.6297031,0,0,3.6297031,-2630.4388,-172.28647)" ns1:connector-curvature="0" />
      <path d="m 1063.92,356.6 c 0.67,-3.93 2.06,-7.68 3.98,-11.16 0.73,4.31 -1.04,8.24 -3.98,11.16 z" id="path268" style="fill:#ffffff" ns1:connector-curvature="0" />
      <path d="m 877.82,347.78 c 3.3,1.36 6.44,3.17 9.02,5.69 -1.63,0.21 -3.25,0.42 -4.86,0.64 -1.41,-2.11 -2.8,-4.22 -4.16,-6.33 z" id="path270" style="fill:#ffffff" ns1:connector-curvature="0" />
      <path d="m 1055.7,362.7 c 0.97,-3.67 2.8,-7.27 6.69,-8.48 -0.97,3.66 -3.13,6.92 -6.69,8.48 z" id="path274" style="fill:#ffffff" ns1:connector-curvature="0" />
      <path d="m 884.51,355.93 c 3.04,1.18 6,2.53 8.95,3.99 -3.66,0.2 -6.53,-1.64 -8.95,-3.99 z" id="path276" style="fill:#ffffff" ns1:connector-curvature="0" />
      <path d="m 1046.54,370.49 c 1.81,-3.27 4.3,-6.07 6.77,-8.86 -0.68,3.94 -3.04,7.3 -6.77,8.86 z" id="path278" style="fill:#ffffff" ns1:connector-curvature="0" />
      <path d="m 892.19,362.87 c 4.16,0.07 7.93,2.02 10.54,5.23 -4.05,-0.39 -7.9,-2.07 -10.54,-5.23 z" id="path280" style="fill:#ffffff" ns1:connector-curvature="0" />
      <path d="m 751.5625,147.8125 c -0.1826,0.003 -0.36792,0.0418 -0.5625,0.0937 -2.81841,0.69152 -3.6487,4.37972 -2.3125,6.71875 1.02763,1.64476 2.70686,3.88445 4.96875,3.09375 3.14626,-1.31416 3.10304,-5.73811 1.03125,-8 -0.85579,-0.84614 -1.84682,-1.92651 -3.125,-1.90625 z m -0.21875,2.15625 c 0.84253,-0.0688 1.62153,0.68314 2,1.375 0.84855,1.04692 1.60926,2.86303 0.375,3.9375 -0.8761,1.04692 -2.40845,0.0461 -2.84375,-0.9375 -0.89264,-1.17916 -1.50142,-3.46395 0.0937,-4.3125 0.12157,-0.0462 0.25464,-0.0527 0.375,-0.0625 z" id="path282" style="fill:#231f20" transform="matrix(3.6297031,0,0,3.6297031,-2630.4388,-172.28647)" ns1:connector-curvature="0" />
      <path d="m 1036.78,377.5 c 2.27,-3.12 4.78,-6.06 7.47,-8.83 -1.22,3.83 -3.68,7.24 -7.47,8.83 z" id="path284" style="fill:#ffffff" ns1:connector-curvature="0" />
      <path d="m 901.16,369.88 c 4.09,0.38 8.16,1.8 10.76,5.16 -4.24,0.05 -8.54,-1.28 -10.76,-5.16 z" id="path286" style="fill:#ffffff" ns1:connector-curvature="0" />
      <path d="m 64.06,381 c 2.16,-1.8 4.32,-3.6 6.53,-5.33 8.77,11.42 18.02,22.47 26.38,34.19 -1.16,1 -3.5,3.01 -4.67,4.02 -6.27,-8.5 -12.51,-17.04 -19.33,-25.1 2.06,6.82 4.8,13.4 7.2,20.1 -1.32,0.82 -2.64,1.61 -3.99,2.39 -4.61,-4.02 -9.27,-8.02 -14.33,-11.47 5.23,8.45 11.58,16.16 16.73,24.65 1.89,2.56 -1.45,4.92 -2.42,7.17 -8.13,-12.41 -16.43,-24.71 -24.17,-37.37 1.79,-1.75 3.57,-3.49 5.34,-5.23 5,3.88 9.8,8.01 14.55,12.21 -2.61,-6.74 -5.21,-13.49 -7.82,-20.23 z" id="path290" style="fill:#231f20" ns1:connector-curvature="0" />
      <path d="m 1027.38,382.37 c 1.73,-3.21 4.63,-5.54 8.01,-6.85 -1.63,3.31 -4.46,5.8 -8.01,6.85 z" id="path292" style="fill:#ffffff" ns1:connector-curvature="0" />
      <path d="m 909.39,377.12 c 5.13,-0.8 10.39,0.36 14.4,3.65 -5.19,0.81 -10.2,-0.76 -14.4,-3.65 z" id="path294" style="fill:#ffffff" ns1:connector-curvature="0" />
      <path d="m 1019.66,385.34 c 1.74,-1.78 3.71,-3.34 5.88,-4.59 -1.59,1.97 -3.62,3.49 -5.88,4.59 z" id="path296" style="fill:#ffffff" ns1:connector-curvature="0" />
      <path d="m 921.95,383.65 c 3.86,-1.13 8.11,-0.77 11.19,1.83 -3.9,0.24 -7.62,-0.43 -11.19,-1.83 z" id="path298" style="fill:#ffffff" ns1:connector-curvature="0" />
      <path d="m 1009.37,390.17 c 1.54,-3.24 4.55,-5.25 7.83,-6.46 -2.53,2.26 -5.09,4.48 -7.83,6.46 z" id="path300" style="fill:#ffffff" ns1:connector-curvature="0" />
      <path d="m 934.33,386.99 c 2.57,0 5.57,0.17 8.26,0.28 0,0.62 0,1.86 0,2.48 -3.32,-0.21 -6.5,-0.39 -9.77,-0.69 0.37,-0.52 1.13,-1.55 1.51,-2.07 z" id="path302" style="fill:#ffffff" ns1:connector-curvature="0" />
      <path d="m 999.64,392.07 c 2.28,-2.69 5.32,-4.62 8.83,-5.24 -2.82,1.94 -5.84,3.62 -8.83,5.24 z" id="path304" style="fill:#ffffff" ns1:connector-curvature="0" />
      <path d="m 988.39,393.95 c 3.43,-2.31 7.15,-4.22 11.17,-5.3 -2.59,3.65 -6.87,5.09 -11.17,5.3 z" id="path306" style="fill:#ffffff" ns1:connector-curvature="0" />
      <path d="m 942.39,391.68 c 3.37,-0.59 6.78,-1.09 10.22,-1.36 -3.4,0.58 -6.8,1.08 -10.22,1.36 z" id="path308" style="fill:#ffffff" ns1:connector-curvature="0" />
      <path d="m 955.3,391.88 c 3.03,0.12 6.27,0.36 9.34,0.66 -3.36,1.72 -7.13,2.23 -10.85,1.82 0.37,-0.62 1.13,-1.86 1.51,-2.48 z" id="path310" style="fill:#ffffff" ns1:connector-curvature="0" />
      <path d="m 964.41,394.59 c 3.27,-1.43 6.72,-2.06 10.33,-2.01 -3.28,1.3 -6.88,1.63 -10.33,2.01 z" id="path312" style="fill:#ffffff" ns1:connector-curvature="0" />
      <path d="m 975.44,394.83 c 3.41,-1.9 7.3,-2.2 11.12,-2.66 -3.41,1.9 -7.35,2.18 -11.12,2.66 z" id="path314" style="fill:#ffffff" ns1:connector-curvature="0" />
    </g>
  </g>
  <g id="steg_oben" transform="translate(0,15.72196)">
    <g id="g2729" style="display:inline" transform="translate(-14.70384,-334.0285)">
      <path d="m 35.915182,601.75454 105.334988,0 0,-34.22202 -105.334988,0 0,34.22202 z" id="path2731" style="fill:#c87137;stroke:#000000;stroke-width:1.08307254" ns1:connector-curvature="0" />
      <text id="text2733" style="font-size:12px;font-style:normal;font-weight:normal;fill:#000000;fill-opacity:1;stroke:none;font-family:Arial Black" x="73.573891" y="587.74902" xml:space="preserve"><tspan id="tspan2735" x="73.573891" y="587.74902">Steg</tspan></text>
    </g>
    <path d="m 47.047618,270.18448 c 58.809522,0 21.171428,0 58.809522,0 57.16286,0 20.70096,91.28143 91.74286,91.28143" id="path3360" style="fill:none;stroke:#000000;stroke-width:1px;stroke-linecap:butt;stroke-linejoin:miter;stroke-opacity:1;marker-mid:url(#Arrow1Lend);marker-end:url(#Arrow1Lend)" ns1:connector-curvature="0" />
    <path d="m 126.5581,332.76686 c 0,0 -59.515244,0 -79.510482,0 -19.995238,0 -26.817142,-14.00012 -26.817142,-31.29238 0,-17.29226 6.821904,-31.29 26.817142,-31.29" id="path2450" style="fill:none;stroke:#000000;stroke-width:1;stroke-linecap:butt;stroke-linejoin:miter;stroke-miterlimit:4;stroke-opacity:1;stroke-dasharray:4, 4;stroke-dashoffset:0;marker-start:url(#Arrow1Lend);marker-mid:url(#Arrow1Lend)" ns1:connector-curvature="0" />
  </g>
  <g id="Klasse2" transform="translate(-32.46755,-225.851)">
    <text id="text3580" style="font-size:36px;font-style:normal;font-weight:normal;text-align:center;text-anchor:middle;fill:#000000;fill-opacity:1;stroke:none;display:inline;font-family:Verdana" x="558.35858" y="307.50226" xml:space="preserve"><tspan id="tspan3582" style="font-size:36px;font-weight:bold;text-align:center;text-anchor:middle" x="558.35858" y="307.50226">DMYV-Jugend</tspan><tspan id="tspan3584" style="font-size:36px;font-weight:bold;text-align:center;text-anchor:middle" x="558.35858" y="352.50226">Motorboot-Slalom</tspan><tspan id="tspan3586" style="font-size:36px;font-weight:bold;text-align:center;text-anchor:middle" x="558.35858" y="397.50226">Klasse 2</tspan></text>
    <text id="text3665" style="font-size:18px;font-style:normal;font-weight:normal;fill:#000000;fill-opacity:1;stroke:none;display:inline;font-family:Verdana" x="228.17746" y="821.35681" xml:space="preserve"><tspan id="tspan3667" x="228.17746" y="821.35681">Ablegen - Startlinie - Tonnentore 1 - 2 - 3 - 4 - rückwärts durch das Tor 5 - </tspan><tspan id="tspan3669" x="228.17746" y="843.85681">vorwärts wieder in den Parcours durch die Tonnentore 5 - 4 - 3 - 2 - 1 - Ziellinie - </tspan><tspan id="tspan3671" x="228.17746" y="866.35681">anlegen und an der Klampe mit Kopfschlag belegen.</tspan></text>
    <path d="m 953.13871,636.42274 c 0,0 -169.98777,-0.18553 -134.44077,-0.18553 67.17515,0 40.66126,-4.80745 31.69077,-13.98752 -31.01967,-31.74437 -38.18219,-47.39326 -53.0625,-84.55034 -10.62995,-26.54368 -35.43748,-26.53126 -35.4375,-26.53125 0,0 -24.80758,-0.0124 -35.4375,26.53125 -14.8517,37.08566 -20.30264,68.72071 -42.5625,106.28125 -10.58126,17.85444 -22.97636,44.25001 -46,44.25 -23.02365,0 -35.44672,-17.55164 -46.09375,-44.25 -16.17221,-40.55324 -27.62743,-69.20774 -42.5,-106.28125 -10.64838,-26.54368 -35.40624,-26.53126 -35.40625,-26.53125 0,0 -24.85871,-0.0124 -35.4375,26.53125 -14.24854,35.75163 -26.61614,65.82485 -42.40625,106.28125 -10.76155,26.69837 -10.77382,43.75001 -46.1875,44.25 -24.82478,0.3505 -88.43303,-76.20839 -159.78991,-85.19173" id="path3673" style="fill:none;stroke:#000000;stroke-width:1;stroke-linecap:round;stroke-linejoin:round;stroke-miterlimit:4;stroke-opacity:1;stroke-dasharray:none;stroke-dashoffset:0;marker-start:none;marker-mid:url(#Arrow1Lstart);marker-end:none;display:inline" ns1:connector-curvature="0" />
    <path d="m 159.02565,574.33982 c 49.567,4.84076 70.28205,9.76024 103.09675,22.40867 45.81593,17.65976 102.81178,73.92167 127.70381,73.41961 24.75072,-0.49921 27.55556,-7.10435 35.46875,-26.1875 26.89849,-64.86734 25.86148,-64.42427 42.5625,-106.28125 10.59098,-26.54368 23.05029,-44.21874 46.03125,-44.21875 25.77216,4.70966 39.0775,27.29391 45.90625,44.21875 16.56528,41.94491 22.82067,73.22482 42.65625,106.28125 10.62994,17.71503 17.72091,26.6875 35.4375,26.6875 17.71658,0 24.77633,-8.97248 35.40625,-26.6875 19.8194,-33.02946 25.47822,-64.47767 42.40625,-106.28125 10.74867,-26.54368 23.09607,-44.21874 46.1875,-44.21875 23.09146,0 35.43665,17.67507 46.1875,44.21875 15.29261,37.75725 39.52977,68.9047 52.99655,77.37573 10.40954,6.54791 38.30264,14.23468 51.57492,14.23468 13.1155,0 40.49103,-7.1217 40.49103,7.11298" id="path3675" style="fill:none;stroke:#000000;stroke-width:1;stroke-linecap:round;stroke-linejoin:round;stroke-miterlimit:4;stroke-opacity:1;stroke-dasharray:4, 4;stroke-dashoffset:0;marker-start:none;marker-mid:url(#Arrow1Lstart);marker-end:none;display:inline" ns1:connector-curvature="0" />
  </g>
  </svg>