<?xml version="1.0" encoding="UTF-8" standalone="no"?>
<svg
   xmlns:dc="http://purl.org/dc/elements/1.1/"
   xmlns:cc="http://creativecommons.org/ns#"
   xmlns:rdf="http://www.w3.org/1999/02/22-rdf-syntax-ns#"
   xmlns:svg="http://www.w3.org/2000/svg"
   xmlns="http://www.w3.org/2000/svg"
   xmlns:sodipodi="http://sodipodi.sourceforge.net/DTD/sodipodi-0.dtd"
   xmlns:inkscape="http://www.inkscape.org/namespaces/inkscape"
   width="1139pt"
   height="442pt"
   viewBox="0 0 1139 442"
   version="1.1"
   id="svg2"
   inkscape:version="0.48.3.1 r9886"
   sodipodi:docname="DMJ-Logo.svg">
  <metadata
     id="metadata320">
    <rdf:RDF>
      <cc:Work
         rdf:about="">
        <dc:format>image/svg+xml</dc:format>
        <dc:type
           rdf:resource="http://purl.org/dc/dcmitype/StillImage" />
      </cc:Work>
    </rdf:RDF>
  </metadata>
  <defs
     id="defs318" />
  <sodipodi:namedview
     pagecolor="#ffffff"
     bordercolor="#666666"
     borderopacity="1"
     objecttolerance="10"
     gridtolerance="10"
     guidetolerance="10"
     inkscape:pageopacity="0"
     inkscape:pageshadow="2"
     inkscape:window-width="1366"
     inkscape:window-height="713"
     id="namedview316"
     showgrid="false"
     showguides="true"
     inkscape:guide-bbox="true"
     inkscape:zoom="2.5216831"
     inkscape:cx="554.36633"
     inkscape:cy="243.61058"
     inkscape:window-x="-3"
     inkscape:window-y="-3"
     inkscape:window-maximized="1"
     inkscape:current-layer="svg2">
    <sodipodi:guide
       orientation="0,1"
       position="605.15138,498.77402"
       id="guide3299" />
    <sodipodi:guide
       orientation="0,1"
       position="947.82926,358.73858"
       id="guide3301" />
    <sodipodi:guide
       orientation="-0.70710678,0.70710678"
       position="740.03153,153.12194"
       id="guide3303" />
    <sodipodi:guide
       orientation="-0.70710678,0.70710678"
       position="462.38959,358.73858"
       id="guide3305" />
    <sodipodi:guide
       orientation="0,1"
       position="373.56003,323.5934"
       id="guide3307" />
    <sodipodi:guide
       orientation="0,1"
       position="288.17559,184.52458"
       id="guide3309" />
    <sodipodi:guide
       orientation="0,1"
       position="253.27826,149.62725"
       id="guide3311" />
    <sodipodi:guide
       orientation="0,1"
       position="319.62779,8.7243318"
       id="guide3313" />
    <sodipodi:guide
       orientation="-0.70710678,0.70710678"
       position="786.77611,149.62725"
       id="guide3315" />
  </sodipodi:namedview>
  <path
     d="M 487.1875 52.5625 C 485.55 53.9375 482.2625 56.6875 480.625 58.0625 C 483.4875 62.8625 486.6125 67.475 489.625 72.1875 C 486.4375 76.125 483 80.025 480.75 84.5625 C 477.15 98.1 486.3875 112.4 498.5625 117.8125 C 507.7875 120.7 512.75625 109.14375 513.40625 101.71875 C 514.71875 102.81875 516.06875 103.9125 517.40625 105 C 518.89375 103.05 520.33125 101.05 521.71875 99 C 508.73125 84.65 498.425 68.225 487.1875 52.5625 z M 495.625 78.9375 C 501.775 87.7375 509.10625 98.9625 503.84375 109.9375 C 495.43125 106.1875 488.0875 97.8125 488.25 88.25 C 488.075 83.625 492.2875 81.1625 495.625 78.9375 z "
     transform="scale(0.8,0.8)"
     id="path6" />
  <path
     d="M 910.22,42.57 1139,42 l 0,394 -622.30145,-0.97947 z"
     id="path8"
     inkscape:connector-curvature="0"
     style="fill:#de771c"
     sodipodi:nodetypes="ccccc" />
  <path
     d="m 481.94002,42.980784 386.60687,0 -112.02835,112.028356 -386.60687,0 z"
     id="path10"
     inkscape:connector-curvature="0"
     style="fill:#231f20"
     sodipodi:nodetypes="ccccc" />
  <path
     fill="#ffffff"
     d=" M 963.45 61.54 C 1009.95 56.66 1055.80 80.88 1083.98 117.01 C 1117.13 158.63 1129.83 214.16 1123.71 266.48 C 1117.55 315.56 1093.49 363.57 1053.14 393.18 C 1019.58 418.02 973.77 426.65 934.01 412.96 C 910.85 405.81 890.50 391.51 873.72 374.28 C 857.01 356.46 844.42 335.06 835.70 312.31 C 815.93 256.87 819.31 192.80 848.16 141.11 C 861.02 118.68 878.21 98.23 900.02 84.04 C 918.66 71.10 940.83 63.28 963.45 61.54 Z"
     id="path12" />
  <path
     fill="#231f20"
     d=" M 369.34 81.14 C 372.20 80.70 375.94 80.50 378.16 82.82 C 384.08 89.68 388.88 97.41 394.06 104.82 C 392.76 105.94 390.15 108.17 388.85 109.28 C 383.98 102.41 379.16 95.50 374.08 88.78 C 372.74 89.00 371.41 89.22 370.08 89.45 C 367.87 100.28 375.86 108.57 381.19 116.90 C 380.08 118.22 377.87 120.84 376.76 122.15 C 370.41 112.87 363.65 103.89 356.51 95.20 C 357.73 93.83 358.95 92.47 360.17 91.11 C 361.19 91.92 362.22 92.74 363.25 93.55 C 364.95 89.41 365.44 83.99 369.34 81.14 Z"
     id="path16" />
  <path
     fill="#231f20"
     d=" M 966.46 83.62 C 981.46 82.27 996.54 84.52 1011.18 87.74 C 1036.58 94.13 1057.23 111.59 1073.95 131.04 C 1088.39 149.64 1099.22 171.35 1103.28 194.68 C 1108.36 224.51 1109.62 255.39 1103.26 285.14 C 1099.48 303.54 1090.81 320.45 1081.66 336.69 C 1068.82 355.88 1051.82 372.65 1031.04 383.07 C 1014.72 392.20 995.97 395.70 977.59 397.57 C 955.11 398.27 932.17 392.96 912.88 381.16 C 893.96 369.42 875.86 354.84 864.89 335.08 C 851.16 312.79 843.49 287.09 842.32 260.96 C 841.66 237.78 840.67 214.11 846.52 191.44 C 853.58 163.22 868.62 136.83 890.26 117.26 C 902.11 106.69 914.88 96.16 930.31 91.40 C 941.96 87.27 954.22 85.11 966.46 83.62 Z"
     id="path18" />
  <path
     fill="#ffffff"
     d=" M 957.62 92.11 C 960.95 88.97 964.44 85.43 969.58 85.95 C 966.13 88.92 962.04 91.03 957.62 92.11 Z"
     id="path20" />
  <path
     fill="#ffffff"
     d=" M 968.36 89.86 C 971.90 86.42 976.84 86.12 981.55 86.20 C 977.50 88.47 973.00 89.77 968.36 89.86 Z"
     id="path22" />
  <path
     fill="#ffffff"
     d=" M 945.55 93.18 C 949.46 90.49 953.63 88.03 958.31 86.94 C 954.50 89.88 950.53 92.94 945.55 93.18 Z"
     id="path24" />
  <path
     fill="#ffffff"
     d=" M 981.05 90.87 C 984.44 86.04 990.60 87.49 995.71 87.40 C 991.37 90.30 986.13 90.82 981.05 90.87 Z"
     id="path26" />
  <path
     fill="#ffffff"
     d=" M 995.12 91.59 C 998.70 88.81 1003.43 89.32 1007.71 89.30 C 1003.84 91.30 999.39 91.62 995.12 91.59 Z"
     id="path28" />
  <path
     fill="#ffffff"
     d=" M 933.20 96.96 C 936.33 93.33 940.75 91.26 945.27 89.88 C 941.53 92.72 937.83 95.77 933.20 96.96 Z"
     id="path30" />
  <path
     fill="#ffffff"
     d=" M 974.37 92.46 C 995.61 92.55 1018.12 95.63 1035.99 108.01 C 1050.97 118.33 1065.28 130.41 1075.03 145.98 C 1086.69 164.31 1094.70 185.06 1097.41 206.67 C 1101.92 238.05 1100.28 270.53 1090.86 300.88 C 1082.03 322.31 1070.74 343.58 1052.88 358.88 C 1038.15 372.51 1019.52 381.40 1000.16 386.22 C 984.16 389.95 967.28 391.49 951.15 387.74 C 933.93 384.49 918.24 375.92 904.09 365.88 C 887.79 354.15 874.14 338.51 865.84 320.15 C 852.33 292.63 849.86 261.19 850.10 231.00 C 851.29 206.54 855.28 181.35 867.85 159.94 C 879.19 139.25 895.47 121.24 914.99 107.99 C 932.89 97.34 953.83 93.53 974.37 92.46 Z"
     id="path32" />
  <path
     fill="#ffffff"
     d=" M 1006.35 93.40 C 1010.73 92.82 1015.18 92.52 1019.61 93.12 C 1015.17 93.31 1010.75 93.40 1006.35 93.40 Z"
     id="path34" />
  <path
     fill="#ffffff"
     d=" M 920.79 102.31 C 923.83 98.50 927.29 94.66 932.28 93.59 C 929.15 97.34 925.53 100.80 920.79 102.31 Z"
     id="path36" />
  <path
     fill="#231f20"
     d=" M 961.08 108.11 C 964.49 96.70 978.25 94.09 988.44 96.48 C 996.49 98.84 1001.99 106.44 1003.40 114.45 C 1004.21 122.03 1004.92 129.97 1002.30 137.30 C 999.85 144.76 994.50 150.83 989.99 157.10 C 990.38 158.63 990.79 160.16 991.19 161.69 C 993.62 161.64 995.91 161.56 998.43 161.53 C 998.99 163.70 999.53 165.88 1000.07 168.07 C 994.92 170.44 989.26 172.42 986.52 177.80 C 1001.56 178.14 1016.62 177.78 1031.68 178.23 C 1032.18 195.31 1032.02 212.40 1031.93 229.48 C 1034.70 229.24 1037.97 227.59 1040.48 229.44 C 1042.34 232.15 1043.68 235.49 1043.55 238.82 C 1041.75 243.40 1036.97 247.29 1038.23 252.71 C 1040.18 256.70 1045.52 256.95 1048.79 259.56 C 1048.84 261.86 1048.92 266.47 1048.96 268.77 C 1046.15 271.12 1042.39 271.63 1038.97 272.57 C 1038.75 275.65 1038.13 278.71 1038.33 281.82 C 1039.97 284.65 1042.68 286.66 1044.60 289.34 C 1044.30 292.71 1042.96 296.17 1040.63 298.66 C 1035.97 301.04 1028.20 296.92 1026.94 303.98 C 1024.44 308.26 1028.12 312.46 1029.95 316.17 C 1027.58 318.37 1025.62 321.15 1022.72 322.68 C 1018.70 322.81 1014.97 320.71 1011.14 319.88 C 1008.94 320.99 1006.76 322.09 1004.58 323.20 C 1003.06 326.54 1005.71 332.01 1002.56 334.60 C 999.35 336.68 995.42 337.26 991.80 338.22 C 988.97 335.17 986.29 332.04 983.19 329.29 C 981.57 337.47 982.02 345.96 985.21 353.77 C 988.88 358.11 995.10 358.84 1000.35 357.38 C 1020.18 350.89 1037.67 337.55 1048.88 319.91 C 1052.82 313.17 1058.31 306.31 1057.89 298.06 C 1057.13 294.18 1054.53 290.97 1052.83 287.50 C 1059.28 280.40 1066.29 273.75 1073.88 267.87 C 1076.11 266.06 1080.48 264.59 1081.42 268.45 C 1084.49 278.61 1086.18 289.28 1087.31 299.82 C 1085.70 306.51 1076.91 305.24 1072.04 308.17 C 1065.47 313.83 1061.86 321.99 1056.96 329.01 C 1044.27 347.59 1028.78 365.51 1007.68 374.66 C 999.03 378.50 989.91 381.17 980.89 383.96 C 977.64 384.87 974.25 386.11 970.85 385.29 C 954.02 380.73 937.53 374.10 923.56 363.46 C 906.15 350.75 893.70 332.78 882.15 314.90 C 880.13 312.14 878.48 308.57 875.11 307.19 C 870.70 305.43 866.06 304.27 861.87 302.05 C 861.00 297.79 862.68 293.54 863.16 289.34 C 864.85 280.89 865.90 272.21 869.04 264.13 C 876.96 267.07 882.81 273.50 889.34 278.61 C 892.07 281.06 895.63 283.21 896.76 286.91 C 895.19 291.73 890.50 295.33 891.25 300.87 C 892.63 313.71 900.26 324.89 909.78 333.21 C 919.04 341.16 928.48 349.20 939.66 354.37 C 945.75 356.85 954.50 359.59 959.34 353.34 C 966.36 347.30 963.31 337.17 963.77 329.17 C 960.27 331.80 957.49 335.34 953.85 337.74 C 950.11 337.32 946.71 335.53 943.29 334.09 C 943.27 330.99 943.37 327.83 943.01 324.76 C 941.17 322.53 938.43 321.26 936.20 319.52 C 933.16 321.06 930.13 322.59 927.05 324.03 C 924.32 321.42 921.62 318.82 919.02 316.10 C 920.15 313.18 921.66 310.35 922.38 307.31 C 921.17 304.79 919.85 302.34 918.42 299.96 C 915.03 299.56 911.28 300.45 908.22 298.73 C 905.64 296.18 904.98 292.39 903.72 289.12 C 906.57 286.82 909.49 284.59 912.44 282.39 C 911.23 279.36 911.27 274.99 908.12 273.06 C 905.55 271.66 902.72 270.88 900.00 269.87 C 900.01 266.07 900.04 262.28 900.09 258.50 C 903.33 257.62 906.73 257.17 909.79 255.71 C 912.03 253.66 911.52 250.02 911.69 247.39 C 909.86 244.14 906.54 242.17 903.83 239.74 C 905.18 236.52 906.35 233.17 908.34 230.26 C 910.00 227.82 913.31 228.50 915.85 228.18 C 916.08 211.55 917.11 194.94 917.33 178.31 C 932.49 177.81 947.72 178.47 962.87 177.23 C 959.65 171.97 956.71 166.51 954.09 160.94 C 952.08 157.07 953.94 151.76 957.99 150.11 C 961.87 148.93 965.99 148.84 970.00 148.06 C 965.17 135.37 955.70 122.26 961.08 108.11 Z"
     id="path38" />
  <path
     fill="#ffffff"
     d=" M 1020.37 96.46 C 1024.39 95.51 1028.48 96.50 1031.67 98.95 C 1027.82 98.53 1024.06 97.53 1020.37 96.46 Z"
     id="path40" />
  <path
     fill="#ffffff"
     d=" M 920.44 97.94 C 918.06 102.19 914.60 105.71 910.46 108.25 C 911.47 103.01 915.66 99.79 920.44 97.94 Z"
     id="path42" />
  <path
     fill="#ffffff"
     d=" M 975.10 99.38 C 976.77 99.78 975.67 102.34 974.22 101.94 C 972.54 101.54 973.67 99.05 975.10 99.38 Z"
     id="path44" />
  <path
     fill="#ffffff"
     d=" M 981.13 98.95 C 984.47 98.42 981.15 103.22 980.31 100.08 C 980.52 99.80 980.92 99.23 981.13 98.95 Z"
     id="path46" />
  <path
     fill="#ffffff"
     d=" M 989.67 101.38 C 990.51 100.18 992.90 101.39 992.18 102.77 C 991.31 104.01 988.88 102.80 989.67 101.38 Z"
     id="path48" />
  <path
     fill="#ffffff"
     d=" M 1030.16 101.04 C 1034.83 100.99 1039.35 102.69 1042.62 106.07 C 1038.01 105.86 1033.48 104.33 1030.16 101.04 Z"
     id="path50" />
  <path
     fill="#231f20"
     d=" M 925.03 107.35 C 928.43 105.49 931.84 103.62 935.27 101.79 C 941.17 113.28 945.97 125.52 953.94 135.81 C 950.17 138.12 946.40 140.41 942.49 142.47 C 940.39 137.64 938.32 132.75 935.32 128.40 C 935.57 134.86 936.37 141.29 936.30 147.76 C 929.44 146.20 923.64 142.17 917.48 139.05 C 920.62 144.01 924.25 148.79 929.17 152.13 C 926.28 153.66 924.04 158.36 920.45 157.61 C 912.68 147.58 904.76 137.59 895.57 128.78 C 898.92 125.79 901.95 122.12 906.13 120.24 C 913.41 122.23 919.75 126.76 926.78 129.52 C 926.22 122.13 925.45 114.75 925.03 107.35 Z"
     id="path52" />
  <path
     fill="#ffffff"
     d=" M 968.03 103.64 C 969.88 103.85 968.90 107.52 967.23 107.00 C 966.18 106.09 966.66 103.98 968.03 103.64 Z"
     id="path54" />
  <path
     fill="#231f20"
     d=" M 1019.23 102.78 C 1023.71 105.47 1028.23 108.17 1032.69 110.94 C 1031.45 117.38 1030.57 123.88 1029.82 130.39 C 1036.59 129.80 1043.00 127.56 1049.20 124.91 C 1051.98 127.63 1054.80 130.35 1057.46 133.20 C 1049.36 134.60 1041.20 135.98 1033.36 138.42 C 1026.82 141.07 1024.02 148.07 1020.40 153.59 C 1016.25 151.39 1012.48 148.52 1008.66 145.84 C 1012.31 141.70 1016.07 137.46 1018.32 132.36 C 1019.58 122.56 1018.41 112.62 1019.23 102.78 Z"
     id="path56" />
  <path
     d="M 438.03125 130.125 C 436.89629 130.13378 435.75977 130.36328 434.625 130.84375 C 427.7375 132.71875 424.175 140 422.6875 146.4375 C 422.5375 158.4 429.85 170.89375 441.4375 174.90625 C 452.375 177.38125 457.2875 165.5125 463.0625 158.8125 C 461.3 157.025 459.54375 155.24375 457.78125 153.46875 C 454.64375 157.55625 451.45 161.725 447.375 164.9375 C 444.25 167.675 440.5625 164.1125 437.4375 163.0625 C 442.025 156.575 447.83125 150.2875 449.71875 142.375 C 449.81367 136.32109 444.16001 130.07758 438.03125 130.125 z M 436.875 138.78125 C 439.27064 138.92234 441.54531 141.06875 441.21875 143.75 C 440.46875 148.9375 436.075 152.5125 432.625 156.0625 C 430.9125 150.9125 428.4875 143.93125 433.75 139.96875 C 434.66406 139.08203 435.78607 138.71712 436.875 138.78125 z "
     transform="scale(0.8,0.8)"
     id="path58" />
  <path
     fill="#ffffff"
     d=" M 969.13 119.83 C 966.41 110.15 978.10 101.27 986.84 105.18 C 993.69 107.94 995.82 116.33 995.95 123.03 C 997.89 133.94 989.99 142.65 984.49 151.16 C 981.61 149.09 978.04 147.18 977.93 143.00 C 975.15 135.21 970.72 128.04 969.13 119.83 Z"
     id="path60" />
  <path
     fill="#ffffff"
     d=" M 901.01 115.71 C 901.97 111.42 904.23 107.45 908.23 105.33 C 907.14 109.56 904.72 113.35 901.01 115.71 Z"
     id="path62" />
  <path
     fill="#ffffff"
     d=" M 996.27 107.54 C 997.40 106.62 998.86 108.58 997.73 109.46 C 996.58 110.38 995.11 108.41 996.27 107.54 Z"
     id="path64" />
  <path
     fill="#ffffff"
     d=" M 1041.46 109.21 C 1046.07 108.90 1050.41 110.78 1053.52 114.07 C 1049.29 113.02 1045.32 111.16 1041.46 109.21 Z"
     id="path66" />
  <path
     fill="#ffffff"
     d=" M 963.37 110.91 C 965.14 110.67 966.07 114.58 964.32 115.06 C 963.05 114.29 962.40 112.13 963.37 110.91 Z"
     id="path68" />
  <path
     fill="#ffffff"
     d=" M 892.80 122.70 C 893.86 118.72 896.08 115.13 899.27 112.51 C 898.53 116.63 896.53 120.55 892.80 122.70 Z"
     id="path72" />
  <path
     fill="#ffffff"
     d=" M 999.27 116.54 C 1000.40 115.62 1001.86 117.58 1000.73 118.46 C 999.58 119.38 998.11 117.41 999.27 116.54 Z"
     id="path74" />
  <path
     fill="#ffffff"
     d=" M 1053.34 117.21 C 1057.30 118.01 1060.93 120.01 1063.38 123.28 C 1059.82 121.62 1056.50 119.48 1053.34 117.21 Z"
     id="path76" />
  <path
     fill="#ffffff"
     d=" M 883.78 132.51 C 884.13 127.79 886.47 123.52 890.13 120.54 C 889.09 125.02 886.96 129.18 883.78 132.51 Z"
     id="path78" />
  <path
     fill="#ffffff"
     d=" M 962.91 120.53 C 964.46 122.38 965.78 124.41 966.94 126.53 C 965.39 124.67 964.04 122.66 962.91 120.53 Z"
     id="path80" />
  <path
     d="M 410.15625 154.78125 C 405.91875 158.99375 401.26875 162.83125 397.78125 167.71875 C 392.54375 173.20625 393 181.71875 395.3125 188.40625 C 399 196.38125 405.1 204.8625 414.125 207 C 422.05 207.6875 425.20625 198.61875 427.34375 192.46875 C 429.40625 196.61875 432.0375 200.8625 430.9375 205.8125 C 429.2 210.2625 424.05625 211.73125 420.59375 214.46875 C 421.45625 216.93125 422.2875 219.38125 423.125 221.84375 C 433.35 218.43125 443.69375 207.5625 438.71875 196.25 C 430.98125 181.3125 419.35625 168.80625 410.15625 154.78125 z M 409.375 167.6875 C 415.525 176.4875 422.85625 187.7125 417.59375 198.6875 C 409.18125 194.9375 401.8375 186.5625 402 177 C 401.825 172.375 406.0375 169.9125 409.375 167.6875 z "
     transform="scale(0.8,0.8)"
     id="path82" />
  <path
     fill="#ffffff"
     d=" M 1061.32 124.93 C 1064.99 126.80 1068.25 129.34 1071.53 131.86 C 1067.75 130.14 1063.98 128.19 1061.32 124.93 Z"
     id="path84" />
  <path
     fill="#ffffff"
     d=" M 877.25 140.68 C 876.82 136.71 878.43 133.10 881.10 130.37 C 880.47 134.02 879.18 137.52 877.25 140.68 Z"
     id="path86" />
  <path
     fill="#ffffff"
     d=" M 967.35 131.66 C 968.47 130.63 970.35 132.52 969.34 133.65 C 968.18 134.74 966.25 132.81 967.35 131.66 Z"
     id="path88" />
  <path
     fill="#ffffff"
     d=" M 997.28 139.52 C 997.69 137.18 998.27 134.87 999.00 132.61 C 998.54 134.94 998.02 137.26 997.28 139.52 Z"
     id="path90" />
  <path
     fill="#231f20"
     d=" M 1060.92 134.24 C 1064.75 137.76 1068.13 141.76 1071.29 145.91 C 1063.59 152.52 1056.40 159.74 1050.34 167.90 C 1060.44 167.73 1070.84 166.79 1080.00 162.19 C 1081.53 165.97 1083.16 169.73 1084.53 173.59 C 1070.90 173.34 1057.66 177.19 1044.14 177.85 C 1040.39 175.58 1038.09 171.68 1035.69 168.14 C 1044.10 156.85 1054.01 146.57 1060.92 134.24 Z"
     id="path94" />
  <path
     fill="#ffffff"
     d=" M 1070.44 134.57 C 1075.33 135.83 1078.14 140.00 1080.08 144.40 C 1076.32 141.66 1072.41 138.91 1070.44 134.57 Z"
     id="path96" />
  <path
     fill="#ffffff"
     d=" M 968.45 137.35 C 970.25 139.00 972.05 140.68 973.84 142.38 C 971.93 140.82 970.14 139.13 968.45 137.35 Z"
     id="path98" />
  <path
     fill="#ffffff"
     d=" M 871.29 150.51 C 871.20 146.36 872.05 142.28 873.59 138.46 C 873.41 142.57 872.63 146.62 871.29 150.51 Z"
     id="path100" />
  <path
     fill="#231f20"
     d=" M 886.88 143.77 C 891.56 141.19 897.67 139.99 902.67 142.33 C 908.62 145.57 913.95 151.74 913.04 159.00 C 913.41 170.84 905.08 180.00 900.34 190.15 C 889.91 182.03 878.24 175.25 865.86 170.62 C 871.30 160.70 876.10 149.01 886.88 143.77 Z"
     id="path102" />
  <path
     fill="#ffffff"
     d=" M 1078.38 145.69 C 1081.86 147.83 1084.99 150.61 1086.53 154.51 C 1083.08 152.31 1079.98 149.52 1078.38 145.69 Z"
     id="path104" />
  <path
     fill="#ffffff"
     d=" M 864.26 161.75 C 863.99 156.39 865.40 151.17 867.77 146.42 C 868.66 151.83 867.83 157.49 864.26 161.75 Z"
     id="path106" />
  <path
     fill="#231f20"
     d=" M 305.18 147.90 C 311.56 156.93 318.05 165.91 325.35 174.23 C 324.26 175.87 323.11 177.46 321.92 179.01 C 320.85 178.13 319.79 177.25 318.73 176.37 C 317.59 180.00 317.45 184.63 314.27 187.28 C 311.48 190.78 306.02 189.67 303.38 186.64 C 297.69 179.89 292.86 172.49 287.89 165.21 C 289.19 164.10 291.78 161.88 293.07 160.77 C 298.34 168.41 303.79 175.96 310.14 182.74 C 311.17 180.60 312.56 178.51 312.80 176.09 C 311.99 167.11 305.21 160.47 300.80 153.11 C 301.89 151.80 304.08 149.20 305.18 147.90 Z"
     id="path108" />
  <path
     fill="#ffffff"
     d=" M 964.78 152.35 C 965.72 151.23 967.90 151.83 968.23 153.24 C 967.99 155.30 963.92 154.30 964.78 152.35 Z"
     id="path110" />
  <path
     fill="#ffffff"
     d=" M 959.09 153.57 C 961.04 154.03 959.31 157.53 957.69 156.52 C 956.76 155.50 957.78 153.62 959.09 153.57 Z"
     id="path112" />
  <path
     fill="#ffffff"
     d=" M 880.34 160.50 C 883.45 153.14 894.57 152.76 899.27 158.72 C 902.96 162.25 901.82 167.94 900.56 172.36 C 893.63 168.74 886.93 164.70 880.34 160.50 Z"
     id="path114" />
  <path
     fill="#ffffff"
     d=" M 970.20 157.94 C 972.10 157.26 972.53 160.92 970.71 161.20 C 969.26 160.99 969.21 158.72 970.20 157.94 Z"
     id="path116" />
  <path
     fill="#ffffff"
     d=" M 1084.27 157.03 C 1087.10 159.32 1090.20 161.64 1091.52 165.20 C 1088.89 162.65 1086.27 160.09 1084.27 157.03 Z"
     id="path118" />
  <path
     fill="#ffffff"
     d=" M 859.62 172.58 C 857.52 168.03 859.16 163.19 861.34 159.00 C 861.13 163.57 860.50 168.10 859.62 172.58 Z"
     id="path120" />
  <path
     fill="#ffffff"
     d=" M 967.31 167.62 C 971.08 165.79 974.62 163.48 977.56 160.47 C 978.33 164.04 979.49 167.53 980.87 170.91 C 977.22 167.21 971.36 166.45 967.68 170.49 C 967.54 169.53 967.42 168.57 967.31 167.62 Z"
     id="path122" />
  <path
     fill="#ffffff"
     d=" M 981.17 162.80 C 982.58 162.35 983.09 164.74 981.83 165.20 C 980.40 165.65 979.88 163.25 981.17 162.80 Z"
     id="path124" />
  <path
     d=" M 265.97 165.61 C 268.59 165.11 271.16 164.59 273.82 164.20 C 276.06 166.11 277.74 169.83 275.31 172.27 C 273.88 174.76 270.34 174.37 268.46 172.65 C 267.37 170.40 266.54 168.05 265.97 165.61 Z"
     id="path126"
     fill="#231f20" />
  <path
     fill="#ffffff"
     d=" M 1088.56 166.33 C 1092.98 168.34 1094.68 173.01 1096.28 177.26 C 1093.02 174.16 1089.66 170.85 1088.56 166.33 Z"
     id="path128" />
  <path
     fill="#ffffff"
     d=" M 854.69 184.01 C 854.02 179.47 854.20 174.85 855.43 170.44 C 856.83 174.98 856.79 179.75 854.69 184.01 Z"
     id="path130" />
  <path
     fill="#ffffff"
     d=" M 972.21 181.54 C 972.83 178.21 973.55 174.90 974.43 171.63 C 975.14 175.05 975.68 178.48 976.33 181.92 C 993.20 182.03 1010.09 182.00 1026.98 182.02 C 1026.78 205.33 1027.50 228.67 1026.75 251.98 C 1026.65 263.08 1019.70 272.52 1013.92 281.45 C 1011.82 278.91 1009.80 276.29 1008.14 273.43 C 1012.08 274.19 1016.96 275.29 1019.41 271.09 C 1013.94 270.05 1008.06 270.59 1003.01 268.00 C 1000.20 266.05 999.82 262.45 998.39 259.60 C 995.06 253.56 990.03 248.55 987.44 242.09 C 991.36 244.93 994.56 249.26 999.42 250.59 C 1004.34 252.07 1008.65 249.22 1012.98 247.52 C 1010.95 246.50 1008.93 245.48 1006.91 244.48 C 1009.75 243.87 1012.89 243.29 1015.77 242.54 C 1013.00 240.08 1009.84 238.14 1006.83 236.01 C 1009.82 236.92 1012.79 237.94 1015.76 238.95 C 1016.61 234.12 1020.69 230.82 1022.95 226.64 C 1021.34 226.73 1019.73 226.83 1018.14 226.95 C 1019.61 225.49 1021.19 224.12 1022.41 222.43 C 1021.89 220.27 1021.94 218.27 1021.37 216.20 C 1022.80 214.25 1024.19 212.27 1025.54 210.25 C 1021.28 210.36 1017.03 210.55 1012.79 210.73 C 1016.24 209.88 1019.76 209.06 1023.23 208.18 C 1022.01 204.95 1023.19 201.61 1023.90 198.41 C 1015.37 199.83 1006.66 199.49 998.10 200.31 C 993.74 200.34 991.08 207.46 995.18 209.68 C 996.45 210.65 997.82 211.46 999.21 212.32 C 999.33 217.88 994.70 220.50 990.05 221.63 C 984.76 213.17 983.08 202.38 986.76 192.96 C 981.35 191.60 976.05 189.40 970.38 189.49 C 966.10 190.94 963.64 195.55 958.87 195.97 C 955.32 196.08 952.33 193.83 949.22 192.45 C 951.08 194.57 952.24 197.76 955.26 198.45 C 959.43 198.78 963.59 198.46 967.77 198.27 C 969.24 207.14 967.76 215.93 964.65 224.32 C 959.49 223.08 953.20 221.24 951.36 215.62 C 948.07 209.78 954.42 208.66 957.72 206.38 C 955.90 205.26 957.18 200.88 954.35 200.73 C 945.62 199.87 936.83 200.52 928.12 199.42 C 930.27 203.37 934.12 205.71 938.12 207.46 C 934.18 206.69 930.41 205.52 926.66 204.17 C 926.94 207.45 927.39 210.76 927.83 214.03 C 931.98 214.80 936.16 215.61 940.37 216.18 C 935.90 216.52 931.46 216.69 927.00 216.54 C 927.22 221.11 928.38 225.95 932.11 228.96 C 931.33 229.53 930.53 230.09 929.79 230.68 C 932.27 232.55 934.91 234.19 937.64 235.68 C 935.91 236.36 934.21 237.06 932.52 237.80 C 937.58 237.32 942.44 235.83 947.31 234.46 C 943.87 236.72 940.26 238.71 936.64 240.66 C 938.83 242.07 941.09 243.38 943.42 244.56 C 942.46 245.36 941.51 246.16 940.58 246.98 C 944.49 248.17 948.33 249.97 952.56 249.65 C 956.47 247.15 959.68 243.71 963.25 240.76 C 958.74 249.78 953.75 258.66 947.77 266.79 C 944.52 270.88 938.41 268.95 934.07 269.56 C 931.46 269.62 932.35 273.03 931.83 274.75 C 935.20 274.25 938.68 273.75 942.06 273.13 C 940.38 275.94 938.70 278.75 937.34 281.73 C 939.01 282.49 940.71 283.25 942.40 284.00 C 943.62 281.36 944.91 278.76 946.22 276.15 C 948.50 278.13 950.66 280.36 953.20 282.06 C 955.08 281.16 956.65 279.75 958.23 278.41 C 955.18 277.02 952.33 275.19 949.93 272.85 C 953.71 272.29 957.49 273.01 961.16 273.90 C 961.54 272.40 961.89 270.90 962.25 269.40 C 960.34 269.09 956.54 268.48 954.64 268.17 C 959.46 262.67 963.92 256.86 967.63 250.55 C 970.64 258.14 972.97 266.35 971.55 274.57 C 971.13 277.31 969.94 280.09 967.68 281.81 C 964.14 283.11 962.58 278.84 960.60 276.79 C 959.59 280.06 956.78 284.23 959.75 287.25 C 962.74 289.96 966.94 287.91 970.38 287.39 C 972.03 289.47 973.68 291.56 975.47 293.53 C 976.52 291.84 977.57 290.15 978.59 288.44 C 981.93 288.97 985.99 290.63 988.81 287.85 C 993.05 284.81 990.20 278.96 988.02 275.45 C 987.22 277.53 986.46 279.63 985.70 281.73 C 984.01 282.23 982.32 282.74 980.66 283.27 C 975.61 273.30 977.91 261.18 982.50 251.47 C 984.57 254.17 986.13 257.23 987.98 260.10 C 990.11 263.58 993.99 265.39 996.82 268.24 C 993.82 268.56 990.84 268.89 987.88 269.21 C 988.04 270.61 988.22 272.01 988.42 273.41 C 992.32 273.55 996.20 273.72 1000.14 273.94 C 997.16 275.83 994.04 277.49 991.13 279.47 C 995.92 283.57 1001.12 279.65 1005.42 276.95 C 1006.48 280.05 1007.66 283.11 1009.00 286.09 C 1002.53 290.10 996.19 294.95 988.59 296.52 C 977.29 299.09 964.95 299.61 954.12 294.92 C 933.34 286.69 920.17 264.00 920.94 242.03 C 920.86 222.38 921.04 202.74 921.02 183.10 C 938.09 183.11 955.15 182.25 972.21 181.54 Z"
     id="path132" />
  <path
     fill="#231f20"
     d=" M 266.44 189.78 C 269.65 183.66 273.10 176.66 280.91 175.89 C 288.21 184.13 295.24 192.69 300.84 202.20 C 303.89 207.70 304.72 215.15 300.00 220.00 C 297.89 224.16 293.18 225.08 289.20 226.44 C 288.75 224.25 288.35 222.05 288.07 219.83 C 292.87 218.47 299.38 215.08 296.23 208.73 C 291.80 199.75 285.21 191.81 278.70 184.27 C 274.30 184.83 273.10 191.01 270.34 194.10 C 269.04 192.65 267.74 191.22 266.44 189.78 Z"
     id="path134" />
  <path
     fill="#ffffff"
     d=" M 1093.38 178.82 C 1096.40 181.40 1099.23 184.38 1100.26 188.34 C 1097.57 185.45 1094.95 182.46 1093.38 178.82 Z"
     id="path136" />
  <path
     fill="#ffffff"
     d=" M 852.55 195.86 C 849.56 191.60 849.49 185.97 851.69 181.36 C 852.29 186.17 852.35 191.01 852.55 195.86 Z"
     id="path138" />
  <path
     d="M 251.78125 230.125 C 250.64629 230.13378 249.50977 230.36328 248.375 230.84375 C 241.4875 232.71875 237.925 240 236.4375 246.4375 C 236.2875 258.4 243.6 270.89375 255.1875 274.90625 C 266.125 277.38125 271.0375 265.5 276.8125 258.8125 C 275.05 257.025 273.29375 255.23125 271.53125 253.46875 C 268.39375 257.55625 265.2125 261.725 261.125 264.9375 C 258 267.675 254.3125 264.1125 251.1875 263.0625 C 255.775 256.575 261.58125 250.2875 263.46875 242.375 C 263.56367 236.32109 257.91001 230.07758 251.78125 230.125 z M 250.625 238.78125 C 253.02064 238.92234 255.29531 241.06875 254.96875 243.75 C 254.21875 248.9375 249.825 252.5125 246.375 256.0625 C 244.675 250.9125 242.2375 243.93125 247.5 239.96875 C 248.41406 239.08203 249.53607 238.71712 250.625 238.78125 z "
     transform="scale(0.8,0.8)"
     id="path140" />
  <path
     style="fill:#ed1c24"
     d="M 427.25 228.90625 L 288.1875 367.96875 L 771.4375 367.96875 L 910.5 228.90625 L 427.25 228.90625 z M 508.25 241.0625 C 519.10583 241.05359 529.91406 241.76562 540.0625 246.125 C 551.55 250.425 557.1375 263.0625 558 274.5625 C 559.775 295.0875 555.9125 316.9 544.3125 334.25 C 535.95 348.0875 520.26875 356.375 504.46875 358.0625 C 492.11875 359.1 479.70625 358.8 467.34375 358.75 C 474.56875 319.5875 488.78125 241.21875 488.78125 241.21875 C 488.78125 241.21875 501.7365 241.0675 508.25 241.0625 z M 652.5625 241.21875 L 637.25 358.6875 L 619.90625 358.75 L 632.34375 269.6875 L 606.875 323.4375 L 593.9375 323.78125 L 589.4375 267.03125 L 570.875 358.625 L 554.03125 358.8125 L 580.28125 241.34375 L 601.15625 241.28125 L 606.34375 291.8125 L 629.0625 241.375 L 652.5625 241.21875 z M 676.1875 241.28125 L 733.875 241.3125 C 733.875 241.3125 724.39375 295.18125 719.53125 322.09375 C 717.29375 335.76875 710.58125 349.975 697.53125 356.25 C 691.10625 360 683.45 360.1125 676.25 360.0625 C 666.8875 361.15 659.35 354.775 652 350.125 C 655.2875 344.8375 658.64375 339.56875 662.03125 334.34375 C 668.98125 338.29375 677.60625 344.95 685.84375 340.875 C 693.31875 338 697.64375 330.46875 699.09375 322.90625 C 703.11875 302.03125 710.15625 260.0625 710.15625 260.0625 L 672.625 260 L 676.1875 241.28125 z M 504.40625 260.15625 C 499.75625 286.88125 495.125 313.5875 490.1875 340.25 C 496.1125 340 502.025 339.84375 507.9375 339.09375 C 518.5125 336.44375 526.54375 327.8875 530.65625 318.0625 C 535.65625 306.15 538.1625 293.06875 537.3125 280.15625 C 536.2875 275.19375 536.20625 269.09375 531.71875 265.78125 C 524.68125 258.60625 513.40625 260.90625 504.40625 260.15625 z "
     transform="scale(0.8,0.8)"
     id="path142" />
  <path
     fill="#ffffff"
     d=" M 1096.76 190.18 C 1099.90 192.21 1101.33 195.70 1101.63 199.31 C 1099.03 196.88 1097.35 193.68 1096.76 190.18 Z"
     id="path146" />
  <path
     fill="#ffffff"
     d=" M 848.22 193.37 C 850.28 197.21 850.48 201.58 850.78 205.85 C 847.98 202.32 847.17 197.71 848.22 193.37 Z"
     id="path154" />
  <path
     fill="#ffffff"
     d=" M 973.32 194.18 C 974.31 192.70 976.83 194.35 975.68 195.82 C 974.67 197.30 972.14 195.64 973.32 194.18 Z"
     id="path156" />
  <path
     fill="#231f20"
     d=" M 244.16 194.70 C 246.48 197.50 248.73 200.35 251.01 203.19 C 253.72 200.64 256.44 198.10 259.16 195.57 C 260.54 197.16 261.84 198.84 263.03 200.59 C 260.23 203.33 257.46 206.11 254.72 208.91 C 258.45 213.96 261.85 219.35 266.34 223.77 C 270.71 225.09 272.75 219.78 275.05 217.09 C 276.14 218.38 278.31 220.96 279.40 222.25 C 276.28 225.42 273.98 229.99 269.58 231.63 C 265.66 233.42 262.32 230.69 259.98 228.03 C 256.38 223.63 253.17 218.96 249.94 214.30 C 247.75 215.93 245.59 217.58 243.39 219.19 C 242.52 217.48 241.63 215.78 240.75 214.08 C 242.40 212.30 244.06 210.52 245.73 208.75 C 244.36 206.45 242.66 204.29 241.83 201.72 C 242.10 199.25 243.31 197.01 244.16 194.70 Z"
     id="path158" />
  <path
     fill="#ffffff"
     d=" M 967.81 196.20 C 968.98 195.06 970.93 197.01 969.80 198.19 C 968.69 199.16 966.82 197.30 967.81 196.20 Z"
     id="path160" />
  <path
     fill="#ffffff"
     d=" M 1098.85 201.43 C 1101.99 204.05 1103.77 207.80 1104.11 211.86 C 1100.74 209.40 1099.35 205.41 1098.85 201.43 Z"
     id="path162" />
  <path
     d=" M 159.83 206.00 C 162.85 210.48 165.93 214.95 168.44 219.76 C 169.60 215.67 170.52 210.71 174.40 208.22 C 177.26 207.67 180.95 207.52 183.16 209.82 C 189.08 216.68 193.88 224.41 199.06 231.82 C 197.75 232.94 195.14 235.18 193.83 236.30 C 187.57 229.30 184.68 218.11 174.82 215.15 C 173.01 226.49 180.69 235.72 186.53 244.54 C 185.25 245.59 182.70 247.70 181.42 248.75 C 172.69 235.83 163.08 223.52 154.64 210.40 C 155.94 209.30 158.53 207.10 159.83 206.00 Z"
     id="path164"
     fill="#231f20" />
  <path
     fill="#ffffff"
     d=" M 846.13 206.04 C 850.36 209.07 849.44 214.28 848.73 218.77 C 846.52 214.89 846.37 210.38 846.13 206.04 Z"
     id="path166" />
  <path
     fill="#ffffff"
     d=" M 1014.53 207.12 C 1015.94 204.94 1017.69 209.02 1015.10 208.41 C 1014.96 208.09 1014.67 207.44 1014.53 207.12 Z"
     id="path168" />
  <path
     fill="#ffffff"
     d=" M 1101.32 212.52 C 1102.64 215.77 1103.28 219.20 1103.43 222.72 C 1102.18 219.46 1101.68 215.96 1101.32 212.52 Z"
     id="path172" />
  <path
     fill="#ffffff"
     d=" M 845.55 217.22 C 847.94 221.69 847.22 226.90 847.45 231.78 C 845.07 227.31 845.71 222.08 845.55 217.22 Z"
     id="path174" />
  <path
     fill="#ffffff"
     d=" M 933.80 219.17 C 934.24 217.90 936.64 218.41 936.20 219.83 C 935.73 221.10 933.34 220.59 933.80 219.17 Z"
     id="path176" />
  <path
     fill="#ffffff"
     d=" M 1016.01 219.22 C 1016.56 218.15 1018.41 218.15 1018.99 219.22 C 1019.34 221.03 1015.64 221.03 1016.01 219.22 Z"
     id="path178" />
  <path
     d="M 294.34375 277.78125 C 293.51614 277.79438 292.6625 277.92031 291.78125 278.15625 C 278.99375 281.29375 275.21875 298.11875 281.28125 308.71875 C 285.94375 316.18125 293.64375 326.3375 303.90625 322.75 C 318.18125 316.8 317.9625 296.73125 308.5625 286.46875 C 304.67969 282.62969 300.13704 277.68931 294.34375 277.78125 z M 293.34375 287.5 C 297.16641 287.18777 300.75156 290.64219 302.46875 293.78125 C 306.31875 298.53125 309.7875 306.8125 304.1875 311.6875 C 300.2125 316.4375 293.225 311.9625 291.25 307.5 C 287.2 302.15 284.4375 291.725 291.6875 287.875 C 292.23906 287.66562 292.79766 287.5446 293.34375 287.5 z "
     transform="scale(0.8,0.8)"
     id="path180" />
  <path
     fill="#ffffff"
     d=" M 1101.89 223.30 C 1103.95 225.77 1105.33 228.70 1106.16 231.80 C 1103.25 229.89 1101.97 226.68 1101.89 223.30 Z"
     id="path182" />
  <path
     fill="#ffffff"
     d=" M 1012.53 228.12 C 1013.94 225.94 1015.69 230.02 1013.10 229.41 C 1012.96 229.09 1012.67 228.44 1012.53 228.12 Z"
     id="path184" />
  <path
     fill="#231f20"
     d=" M 144.07 246.91 C 143.70 239.06 148.55 231.09 156.37 228.94 C 157.48 230.16 159.70 232.61 160.81 233.83 C 156.88 236.72 150.98 239.35 151.11 244.99 C 151.77 251.68 156.37 258.14 163.51 258.82 C 165.91 255.49 168.31 252.14 170.72 248.81 C 171.87 250.15 174.17 252.83 175.33 254.17 C 171.40 259.93 166.48 267.70 158.19 265.95 C 149.92 263.57 145.28 254.90 144.07 246.91 Z"
     id="path186" />
  <path
     fill="#ffffff"
     d=" M 844.32 230.40 C 845.88 234.71 847.22 239.13 848.11 243.65 C 844.30 240.28 844.10 235.16 844.32 230.40 Z"
     id="path190" />
  <path
     fill="#ffffff"
     d=" M 1101.64 232.82 C 1102.79 233.62 1103.94 234.44 1105.11 235.25 C 1104.85 238.38 1104.79 241.56 1104.41 244.69 C 1102.85 240.91 1102.35 236.81 1101.64 232.82 Z"
     id="path192" />
  <path
     fill="#ffffff"
     d=" M 946.13 241.95 C 949.47 241.42 946.15 246.22 945.31 243.08 C 945.52 242.80 945.92 242.23 946.13 241.95 Z"
     id="path194" />
  <path
     fill="#ffffff"
     d=" M 844.17 242.34 C 847.59 247.05 848.23 252.94 848.84 258.57 C 844.90 254.02 843.75 248.21 844.17 242.34 Z"
     id="path196" />
  <path
     d="M 265.59375 307.78125 C 264.76614 307.79438 263.9125 307.92031 263.03125 308.15625 C 250.24375 311.29375 246.46875 328.11875 252.53125 338.71875 C 257.19375 346.18125 264.89375 356.3375 275.15625 352.75 C 289.43125 346.7875 289.2125 326.73125 279.8125 316.46875 C 275.92969 312.62969 271.38704 307.68931 265.59375 307.78125 z M 264.59375 317.5 C 268.41641 317.18777 272.00156 320.64219 273.71875 323.78125 C 277.56875 328.53125 281.0375 336.8125 275.4375 341.6875 C 271.4625 346.4375 264.475 341.9625 262.5 337.5 C 258.45 332.15 255.6875 321.725 262.9375 317.875 C 263.48906 317.66562 264.04766 317.5446 264.59375 317.5 z "
     transform="scale(0.8,0.8)"
     id="path198" />
  <path
     fill="#ffffff"
     d=" M 1102.67 245.99 C 1104.86 250.24 1105.80 255.44 1103.36 259.79 C 1102.78 255.22 1102.71 250.58 1102.67 245.99 Z"
     id="path200" />
  <path
     fill="#231f20"
     d=" M 131.15 253.04 C 132.39 254.07 134.86 256.13 136.10 257.16 C 131.58 260.92 125.05 264.42 126.15 271.27 C 131.96 270.25 137.73 267.94 143.70 268.31 C 148.85 270.11 151.46 277.09 148.98 281.95 C 146.21 287.52 140.89 291.20 136.28 295.17 C 135.17 293.89 132.95 291.32 131.84 290.03 C 135.74 287.34 140.33 284.99 142.57 280.60 C 143.14 278.61 141.91 276.61 141.50 274.68 C 136.60 276.42 131.76 278.83 126.40 278.49 C 120.89 277.75 117.77 270.97 120.03 266.11 C 122.01 260.51 126.86 256.84 131.15 253.04 Z"
     id="path202" />
  <path
     fill="#ffffff"
     d=" M 843.96 257.53 C 847.66 260.48 849.45 264.84 848.73 269.69 C 846.41 265.97 845.29 261.65 843.96 257.53 Z"
     id="path206" />
  <path
     fill="#ffffff"
     d=" M 1099.64 262.22 C 1100.34 261.86 1101.73 261.13 1102.43 260.76 C 1103.17 265.33 1103.36 269.93 1102.63 274.52 C 1101.06 270.58 1100.32 266.38 1099.64 262.22 Z"
     id="path208" />
  <path
     d="M 213.53125 335 C 211.90625 336.3875 208.6875 339.125 207.0625 340.5 C 217.55 356.675 229.15625 372.0625 240.34375 387.75 C 246.03125 383.1875 253.10625 379.4125 256.34375 372.5625 C 262.03125 356.0875 248.23125 336.8875 230.96875 336.125 C 228.41875 341.3375 225.5875 346.425 224.25 352.125 C 221.1625 346.125 217.29375 340.5875 213.53125 335 z M 234.6875 345.375 C 241.525 350.5125 249.16875 356.98125 249.78125 366.15625 C 248.79375 370.45625 245.25 373.5875 242.9375 377.1875 C 236.7625 368.425 227 356.1 234.6875 345.375 z "
     transform="scale(0.8,0.8)"
     id="path210" />
  <path
     fill="#ffffff"
     d=" M 846.13 269.29 C 849.17 272.70 850.84 277.07 851.17 281.61 C 847.48 278.63 845.72 274.08 846.13 269.29 Z"
     id="path212" />
  <path
     fill="#ffffff"
     d=" M 1009.13 292.36 C 1015.82 286.41 1021.48 279.51 1026.12 271.85 C 1025.04 279.33 1023.37 286.87 1019.36 293.38 C 1018.10 295.80 1014.32 295.27 1012.53 296.62 C 1011.39 295.19 1010.26 293.77 1009.13 292.36 Z"
     id="path214" />
  <path
     fill="#231f20"
     d=" M 95.16 274.70 C 97.48 277.50 99.73 280.35 102.01 283.19 C 104.72 280.64 107.44 278.10 110.16 275.57 C 111.55 277.16 112.84 278.84 114.03 280.59 C 111.23 283.33 108.46 286.11 105.72 288.91 C 109.45 293.95 112.85 299.34 117.34 303.77 C 121.72 305.09 123.75 299.78 126.05 297.09 C 127.14 298.38 129.31 300.96 130.40 302.25 C 127.29 305.42 124.98 309.99 120.58 311.63 C 116.66 313.42 113.32 310.69 110.98 308.03 C 107.39 303.63 104.17 298.96 100.94 294.30 C 98.75 295.92 96.59 297.58 94.39 299.19 C 93.52 297.48 92.63 295.78 91.75 294.08 C 93.40 292.29 95.06 290.52 96.73 288.75 C 95.36 286.45 93.66 284.29 92.83 281.72 C 93.10 279.25 94.31 277.01 95.16 274.70 Z"
     id="path216" />
  <path
     fill="#ffffff"
     d=" M 924.67 275.93 C 929.31 281.88 934.22 287.60 939.27 293.22 C 936.97 293.98 934.22 294.57 932.06 295.34 C 928.78 289.21 925.76 282.85 924.67 275.93 Z"
     id="path218" />
  <path
     fill="#ffffff"
     d=" M 1097.64 288.65 C 1098.21 284.22 1098.69 279.78 1099.66 275.42 C 1100.37 280.31 1100.81 285.28 1100.28 290.21 C 1099.62 289.82 1098.30 289.04 1097.64 288.65 Z"
     id="path220" />
  <path
     fill="#ffffff"
     d=" M 847.12 281.25 C 849.50 284.48 851.58 287.96 853.04 291.72 C 849.33 289.46 847.55 285.43 847.12 281.25 Z"
     id="path224" />
  <path
     fill="#231f20"
     d=" M 164.43 292.41 C 169.85 289.88 172.78 295.86 176.54 298.49 C 175.22 299.54 172.59 301.63 171.27 302.68 C 168.81 301.46 166.29 300.38 163.72 299.43 C 161.67 310.78 169.75 319.81 175.52 328.53 C 174.21 329.62 171.59 331.80 170.29 332.89 C 164.01 323.63 157.03 314.90 150.02 306.20 C 151.33 305.08 152.64 303.95 153.95 302.82 C 155.09 303.80 156.24 304.78 157.38 305.77 C 157.65 300.82 158.57 293.79 164.43 292.41 Z"
     id="path226" />
  <path
     fill="#ffffff"
     d=" M 849.13 291.45 C 851.50 294.54 853.71 297.83 855.19 301.46 C 852.36 298.68 850.62 295.06 849.13 291.45 Z"
     id="path228" />
  <path
     fill="#ffffff"
     d=" M 1095.67 292.52 C 1096.00 295.53 1096.48 298.53 1097.02 301.53 C 1096.29 301.54 1094.84 301.57 1094.11 301.58 C 1094.70 298.57 1095.09 295.52 1095.67 292.52 Z"
     id="path230" />
  <path
     fill="#231f20"
     d=" M 87.18 297.90 C 93.56 306.93 100.05 315.91 107.35 324.23 C 106.26 325.86 105.11 327.45 103.92 329.01 C 102.85 328.13 101.79 327.25 100.73 326.37 C 99.59 330.00 99.45 334.63 96.27 337.28 C 93.48 340.78 88.03 339.67 85.38 336.64 C 79.69 329.89 74.87 322.48 69.89 315.21 C 71.19 314.10 73.78 311.88 75.07 310.77 C 80.34 318.41 85.79 325.95 92.14 332.74 C 93.17 330.60 94.57 328.51 94.80 326.09 C 93.99 317.11 87.21 310.47 82.80 303.11 C 83.89 301.80 86.08 299.20 87.18 297.90 Z"
     id="path232" />
  <path
     fill="#ffffff"
     d=" M 995.24 299.88 C 998.21 301.36 1000.34 304.09 1002.68 306.39 C 997.60 312.01 990.32 314.81 983.10 316.46 C 982.99 311.94 982.98 307.45 982.98 302.94 C 987.02 301.85 991.03 300.27 995.24 299.88 Z"
     id="path234" />
  <path
     fill="#ffffff"
     d=" M 951.86 299.71 C 956.23 300.90 960.61 302.02 965.03 303.12 C 964.93 307.42 964.92 311.75 964.67 316.07 C 957.78 316.52 951.95 312.80 946.20 309.64 C 947.93 306.26 949.88 302.97 951.86 299.71 Z"
     id="path236" />
  <path
     fill="#ffffff"
     d=" M 851.86 301.33 C 855.25 304.93 858.86 308.66 860.24 313.56 C 856.02 310.62 852.24 306.70 851.86 301.33 Z"
     id="path238" />
  <path
     fill="#ffffff"
     d=" M 1091.49 303.25 C 1092.69 307.76 1092.72 312.38 1090.42 316.55 C 1090.44 312.08 1090.88 307.65 1091.49 303.25 Z"
     id="path240" />
  <path
     fill="#ffffff"
     d=" M 857.34 314.70 C 860.64 317.38 864.02 320.30 865.35 324.51 C 861.77 322.08 858.25 319.14 857.34 314.70 Z"
     id="path242" />
  <path
     fill="#ffffff"
     d=" M 1084.11 326.67 C 1084.33 322.80 1085.26 319.00 1086.69 315.40 C 1087.38 319.43 1086.48 323.43 1084.11 326.67 Z"
     id="path244" />
  <path
     d="M 179.34375 396.53125 C 178.51614 396.54438 177.6625 396.67031 176.78125 396.90625 C 163.99375 400.04375 160.21875 416.86875 166.28125 427.46875 C 170.94375 434.93125 178.64375 445.0875 188.90625 441.5 C 203.18125 435.5375 202.9625 415.48125 193.5625 405.21875 C 189.67969 401.37969 185.13704 396.43931 179.34375 396.53125 z M 178.34375 406.25 C 182.16641 405.93777 185.75156 409.39219 187.46875 412.53125 C 191.31875 417.28125 194.7875 425.5625 189.1875 430.4375 C 185.2125 435.1875 178.225 430.7125 176.25 426.25 C 172.2 420.9 169.4375 410.475 176.6875 406.625 C 177.23906 406.41562 177.79766 406.2946 178.34375 406.25 z "
     transform="scale(0.8,0.8)"
     id="path246" />
  <path
     d="m 202.62261,322.2982 386.60686,0 -112.72233,112.72233 -386.606867,0 z"
     id="path248"
     inkscape:connector-curvature="0"
     style="fill:#fff200"
     sodipodi:nodetypes="ccccc" />
  <path
     d="M 79.28125 407.625 C 78.146294 407.63378 77.009766 407.86328 75.875 408.34375 C 68.9875 410.21875 65.4375 417.5 63.9375 423.9375 C 63.7875 435.9 71.1 448.39375 82.6875 452.40625 C 93.625 454.88125 98.5375 443 104.3125 436.3125 C 102.55 434.525 100.79375 432.73125 99.03125 430.96875 C 95.89375 435.05625 92.7125 439.225 88.625 442.4375 C 85.5 445.175 81.8125 441.6125 78.6875 440.5625 C 83.275 434.075 89.08125 427.7875 90.96875 419.875 C 91.063672 413.82109 85.410014 407.57758 79.28125 407.625 z M 78.125 416.28125 C 80.523495 416.42234 82.803906 418.56875 82.46875 421.25 C 81.71875 426.4375 77.325 430.0125 73.875 433.5625 C 72.175 428.4125 69.7375 421.43125 75 417.46875 C 75.914062 416.58203 77.034775 416.21712 78.125 416.28125 z "
     transform="scale(0.8,0.8)"
     id="path252" />
  <path
     fill="#ffffff"
     d=" M 862.61 325.53 C 866.60 328.38 870.23 331.89 872.13 336.49 C 868.12 333.59 863.32 330.87 862.61 325.53 Z"
     id="path254" />
  <path
     fill="#ffffff"
     d=" M 1078.39 337.77 C 1078.08 333.77 1078.90 329.84 1080.52 326.23 C 1081.24 330.27 1080.44 334.31 1078.39 337.77 Z"
     id="path256" />
  <path
     fill="#231f20"
     d=" M 106.16 335.70 C 108.48 338.50 110.73 341.35 113.01 344.19 C 115.72 341.64 118.44 339.10 121.16 336.57 C 122.55 338.16 123.84 339.84 125.03 341.59 C 122.23 344.33 119.46 347.11 116.72 349.91 C 120.45 354.95 123.85 360.34 128.34 364.77 C 132.72 366.09 134.75 360.78 137.05 358.09 C 138.14 359.38 140.31 361.96 141.40 363.25 C 138.29 366.42 135.98 370.99 131.58 372.63 C 127.66 374.42 124.32 371.69 121.98 369.03 C 118.39 364.63 115.17 359.96 111.94 355.30 C 109.75 356.92 107.59 358.58 105.39 360.19 C 104.52 358.48 103.63 356.78 102.75 355.08 C 104.40 353.29 106.06 351.52 107.73 349.75 C 106.36 347.45 104.66 345.29 103.83 342.72 C 104.10 340.25 105.31 338.00 106.16 335.70 Z"
     id="path260" />
  <path
     fill="#ffffff"
     d=" M 868.72 337.53 C 872.73 339.88 876.61 342.66 879.37 346.47 C 874.59 345.25 871.11 341.69 868.72 337.53 Z"
     id="path262" />
  <path
     fill="#ffffff"
     d=" M 1070.83 347.60 C 1071.22 344.13 1072.83 341.01 1075.20 338.48 C 1074.43 341.81 1072.96 344.93 1070.83 347.60 Z"
     id="path264" />
  <path
     d="M 44.25 428.34375 C 34.601245 428.59292 28.676562 438.75938 22.125 444.90625 C 31.85 459.94375 42.775 474.15625 52.9375 488.90625 C 59.3875 482.44375 67.09375 476.3875 69.84375 467.3125 C 72.84375 451.425 62.025 436.0375 48.625 428.875 C 47.08125 428.46562 45.628394 428.30815 44.25 428.34375 z M 43.84375 438.8125 C 45.745682 438.68575 47.605469 439.17578 49.34375 440.59375 C 56.58125 446.69375 63 456.15625 61.0625 466.03125 C 59.5625 469.68125 57.08125 472.825 54.84375 476.0625 C 47.31875 465.5625 40.025 454.9 32.1875 444.625 C 35.35 442.2875 39.6595 439.09136 43.84375 438.8125 z "
     transform="scale(0.8,0.8)"
     id="path266" />
  <path
     fill="#ffffff"
     d=" M 1063.92 356.60 C 1064.59 352.67 1065.98 348.92 1067.90 345.44 C 1068.63 349.75 1066.86 353.68 1063.92 356.60 Z"
     id="path268" />
  <path
     fill="#ffffff"
     d=" M 877.82 347.78 C 881.12 349.14 884.26 350.95 886.84 353.47 C 885.21 353.68 883.59 353.89 881.98 354.11 C 880.57 352.00 879.18 349.89 877.82 347.78 Z"
     id="path270" />
  <path
     fill="#ffffff"
     d=" M 1055.70 362.70 C 1056.67 359.03 1058.50 355.43 1062.39 354.22 C 1061.42 357.88 1059.26 361.14 1055.70 362.70 Z"
     id="path274" />
  <path
     fill="#ffffff"
     d=" M 884.51 355.93 C 887.55 357.11 890.51 358.46 893.46 359.92 C 889.80 360.12 886.93 358.28 884.51 355.93 Z"
     id="path276" />
  <path
     fill="#ffffff"
     d=" M 1046.54 370.49 C 1048.35 367.22 1050.84 364.42 1053.31 361.63 C 1052.63 365.57 1050.27 368.93 1046.54 370.49 Z"
     id="path278" />
  <path
     fill="#ffffff"
     d=" M 892.19 362.87 C 896.35 362.94 900.12 364.89 902.73 368.10 C 898.68 367.71 894.83 366.03 892.19 362.87 Z"
     id="path280" />
  <path
     d="M 121.84375 455.28125 C 121.01528 455.29438 120.16406 455.42031 119.28125 455.65625 C 106.49375 458.79375 102.71875 475.60625 108.78125 486.21875 C 113.44375 493.68125 121.14375 503.8375 131.40625 500.25 C 145.68125 494.2875 145.4625 474.23125 136.0625 463.96875 C 132.17969 460.12969 127.64302 455.18931 121.84375 455.28125 z M 120.84375 465 C 124.66641 464.68777 128.25156 468.14219 129.96875 471.28125 C 133.81875 476.03125 137.2875 484.3125 131.6875 489.1875 C 127.7125 493.9375 120.725 489.4625 118.75 485 C 114.7 479.65 111.95 469.225 119.1875 465.375 C 119.73906 465.16562 120.29766 465.0446 120.84375 465 z "
     transform="scale(0.8,0.8)"
     id="path282" />
  <path
     fill="#ffffff"
     d=" M 1036.78 377.50 C 1039.05 374.38 1041.56 371.44 1044.25 368.67 C 1043.03 372.50 1040.57 375.91 1036.78 377.50 Z"
     id="path284" />
  <path
     fill="#ffffff"
     d=" M 901.16 369.88 C 905.25 370.26 909.32 371.68 911.92 375.04 C 907.68 375.09 903.38 373.76 901.16 369.88 Z"
     id="path286" />
  <path
     fill="#231f20"
     d=" M 64.06 381.00 C 66.22 379.20 68.38 377.40 70.59 375.67 C 79.36 387.09 88.61 398.14 96.97 409.86 C 95.81 410.86 93.47 412.87 92.30 413.88 C 86.03 405.38 79.79 396.84 72.97 388.78 C 75.03 395.60 77.77 402.18 80.17 408.88 C 78.85 409.70 77.53 410.49 76.18 411.27 C 71.57 407.25 66.91 403.25 61.85 399.80 C 67.08 408.25 73.43 415.96 78.58 424.45 C 80.47 427.01 77.13 429.37 76.16 431.62 C 68.03 419.21 59.73 406.91 51.99 394.25 C 53.78 392.50 55.56 390.76 57.33 389.02 C 62.33 392.90 67.13 397.03 71.88 401.23 C 69.27 394.49 66.67 387.74 64.06 381.00 Z"
     id="path290" />
  <path
     fill="#ffffff"
     d=" M 1027.38 382.37 C 1029.11 379.16 1032.01 376.83 1035.39 375.52 C 1033.76 378.83 1030.93 381.32 1027.38 382.37 Z"
     id="path292" />
  <path
     fill="#ffffff"
     d=" M 909.39 377.12 C 914.52 376.32 919.78 377.48 923.79 380.77 C 918.60 381.58 913.59 380.01 909.39 377.12 Z"
     id="path294" />
  <path
     fill="#ffffff"
     d=" M 1019.66 385.34 C 1021.40 383.56 1023.37 382.00 1025.54 380.75 C 1023.95 382.72 1021.92 384.24 1019.66 385.34 Z"
     id="path296" />
  <path
     fill="#ffffff"
     d=" M 921.95 383.65 C 925.81 382.52 930.06 382.88 933.14 385.48 C 929.24 385.72 925.52 385.05 921.95 383.65 Z"
     id="path298" />
  <path
     fill="#ffffff"
     d=" M 1009.37 390.17 C 1010.91 386.93 1013.92 384.92 1017.20 383.71 C 1014.67 385.97 1012.11 388.19 1009.37 390.17 Z"
     id="path300" />
  <path
     fill="#ffffff"
     d=" M 934.33 386.99 C 936.90 386.99 939.90 387.16 942.59 387.27 C 942.59 387.89 942.59 389.13 942.59 389.75 C 939.27 389.54 936.09 389.36 932.82 389.06 C 933.19 388.54 933.95 387.51 934.33 386.99 Z"
     id="path302" />
  <path
     fill="#ffffff"
     d=" M 999.64 392.07 C 1001.92 389.38 1004.96 387.45 1008.47 386.83 C 1005.65 388.77 1002.63 390.45 999.64 392.07 Z"
     id="path304" />
  <path
     fill="#ffffff"
     d=" M 988.39 393.95 C 991.82 391.64 995.54 389.73 999.56 388.65 C 996.97 392.30 992.69 393.74 988.39 393.95 Z"
     id="path306" />
  <path
     fill="#ffffff"
     d=" M 942.39 391.68 C 945.76 391.09 949.17 390.59 952.61 390.32 C 949.21 390.90 945.81 391.40 942.39 391.68 Z"
     id="path308" />
  <path
     fill="#ffffff"
     d=" M 955.30 391.88 C 958.33 392.00 961.57 392.24 964.64 392.54 C 961.28 394.26 957.51 394.77 953.79 394.36 C 954.16 393.74 954.92 392.50 955.30 391.88 Z"
     id="path310" />
  <path
     fill="#ffffff"
     d=" M 964.41 394.59 C 967.68 393.16 971.13 392.53 974.74 392.58 C 971.46 393.88 967.86 394.21 964.41 394.59 Z"
     id="path312" />
  <path
     fill="#ffffff"
     d=" M 975.44 394.83 C 978.85 392.93 982.74 392.63 986.56 392.17 C 983.15 394.07 979.21 394.35 975.44 394.83 Z"
     id="path314" />
</svg>
